<?xml version="1.0" encoding="utf-8"?>
<!-- Generator: Adobe Illustrator 23.0.0, SVG Export Plug-In . SVG Version: 6.00 Build 0)  -->
<svg version="1.1" id="Capa_1" xmlns="http://www.w3.org/2000/svg" xmlns:xlink="http://www.w3.org/1999/xlink" x="0px" y="0px"
	 viewBox="0 0 2500 1000" style="enable-background:new 0 0 2500 1000;" xml:space="preserve">
<style type="text/css">
	.st0{clip-path:url(#SVGID_2_);fill:#FFFFFF;}
</style>
<g>
	<defs>
		<rect id="SVGID_1_" x="-312.5" y="-125" width="3125" height="1250"/>
	</defs>
	<clipPath id="SVGID_2_">
		<use xlink:href="#SVGID_1_"  style="overflow:visible;"/>
	</clipPath>
	<path class="st0" d="M912.8,302.4v30.7h90.1v-30.7c0-74.3,60.5-134.8,134.8-134.8c74.3,0,134.8,60.5,134.8,134.8v222.2h90.1V302.4
		c0-124-100.9-224.9-224.9-224.9C1013.7,77.6,912.8,178.4,912.8,302.4 M1212.3,654.3c0,41-33.3,74.3-74.3,74.3
		c-41,0-74.3-33.3-74.3-74.3c0-41.1,33.3-74.3,74.3-74.3C1179.1,580,1212.3,613.2,1212.3,654.3"/>
	<path class="st0" d="M962,653.5c0-96.6,78.6-175.1,175.1-175.1c96.6,0,175.1,78.6,175.1,175.1c0,96.6-78.6,175.1-175.1,175.1
		C1040.6,828.6,962,750,962,653.5 M872,653.5c0,146.2,119,265.2,265.2,265.2c146.2,0,265.2-119,265.2-265.2
		c0-146.2-119-265.2-265.2-265.2C991,388.3,872,507.3,872,653.5 M179.7,629c27.6,0,43.4-26,43.4-61.3c0-32.4-15.3-60.3-43.4-60.3
		s-43.9,27.3-43.9,61.1c0,34,16.3,60.6,43.7,60.6H179.7L179.7,629z M177.8,661.4c-53.3,0-84.9-40.5-84.9-91.9
		c0-54.1,34.8-94.6,87.9-94.6c55.5,0,85.7,41.5,85.7,91.4c0,59.5-35.6,95.1-88.4,95.1L177.8,661.4L177.8,661.4z M343.2,562.3
		c3.5,0.8,7.8,1.1,13.6,1.1c21.7,0,35.1-11,35.1-29.2c0-16.6-11.3-26.5-31.9-26.5c-8.3,0-13.9,0.5-16.9,1.3V562.3z M302.8,480.3
		c12.6-2.1,30.3-3.7,55.2-3.7c25.2,0,43.4,4.8,55.5,14.7c11.5,8.8,19,23.8,19,41.5c0,17.9-5.6,33-16.3,42.9
		c-13.9,12.9-34.8,19-58.9,19c-5.4,0-10.2-0.3-13.9-1.1v64.9h-40.5V480.3z M575.4,582.1h-66.5V625h74.2v33.5H468.2V477.9h111.2v33.5
		h-70.5v37.5h66.5L575.4,582.1L575.4,582.1z M631.1,658.5V477.9h47.7l37.5,66.2c10.7,19,21.2,41.5,29.5,61.9h0.5
		c-2.4-23.8-3.2-48.2-3.2-75.6v-52.5h37.5v180.6h-42.9l-38.6-69.7c-10.7-19.6-22.8-42.6-31.4-63.8h-1.1c1.3,24.1,1.9,49.6,1.9,79
		v54.4H631.1L631.1,658.5z M1563.9,581.6l-11.2-38.3c-2.9-10.7-6.2-24.4-8.8-34.8h-0.8c-2.4,10.7-5.4,24.4-8.1,34.8l-11,38.3H1563.9
		z M1518,612.1l-12.6,46.4h-42.3l55.2-180.6h53.3l56.2,180.6H1584l-13.9-46.4H1518z M1781.9,653.6c-7.2,3.5-24.4,7.8-46.1,7.8
		c-62.4,0-94.6-39.1-94.6-90.8c0-61.6,44-95.7,98.6-95.7c21.2,0,37.2,4.3,44.5,8.1l-8.6,32.2c-8.1-3.5-19.6-6.7-34.3-6.7
		c-32.2,0-57.3,19.6-57.3,60c0,36.2,21.4,59,57.6,59c12.6,0,26-2.4,34.3-5.9L1781.9,653.6L1781.9,653.6z M1942.6,653.6
		c-7.2,3.5-24.4,7.8-46.1,7.8c-62.4,0-94.6-39.1-94.6-90.8c0-61.6,44-95.7,98.6-95.7c21.2,0,37.2,4.3,44.5,8.1l-8.6,32.2
		c-8-3.5-19.6-6.7-34.3-6.7c-32.1,0-57.3,19.6-57.3,60c0,36.2,21.4,59,57.6,59c12.6,0,26-2.4,34.3-5.9L1942.6,653.6L1942.6,653.6z
		 M2097.2,582.1h-66.4V625h74.2v33.5H1990V477.9h111.2v33.5h-70.5v37.5h66.4V582.1L2097.2,582.1z M2154.3,616.6
		c10.7,5.6,27.9,11.3,45.3,11.3c18.7,0,28.7-7.8,28.7-19.8c0-11-8.6-17.7-30.3-25.2c-30-10.7-49.8-27.3-49.8-53.9
		c0-30.8,26-54.1,68.3-54.1c20.6,0,35.4,4,46.1,9.1l-9.1,32.7c-7-3.5-20.1-8.6-37.5-8.6c-17.7,0-26.3,8.3-26.3,17.4
		c0,11.5,9.9,16.6,33.5,25.7c31.9,11.8,46.6,28.4,46.6,54.1c0,30.3-23,56-72.6,56c-20.6,0-41-5.6-51.2-11.3L2154.3,616.6
		L2154.3,616.6z M2308.5,616.6c10.7,5.6,27.9,11.3,45.3,11.3c18.8,0,28.7-7.8,28.7-19.8c0-11-8.6-17.7-30.3-25.2
		c-30-10.7-49.8-27.3-49.8-53.9c0-30.8,26-54.1,68.3-54.1c20.6,0,35.4,4,46.1,9.1l-9.1,32.7c-7-3.5-20.1-8.6-37.5-8.6
		c-17.7,0-26.3,8.3-26.3,17.4c0,11.5,9.9,16.6,33.5,25.7c31.9,11.8,46.6,28.4,46.6,54.1c0,30.3-23,56-72.6,56
		c-20.6,0-41-5.6-51.2-11.3L2308.5,616.6L2308.5,616.6z"/>
</g>
</svg>
