  0
SECTION
  2
HEADER
  9
$ACADVER
  1
AC1024
  9
$ACADMAINTVER
 70
     6
  9
$DWGCODEPAGE
  3
ANSI_1252
  9
$INSBASE
 10
0.0
 20
0.0
 30
0.0
  9
$EXTMIN
 10
1.000000000000000E+20
 20
1.000000000000000E+20
 30
1.000000000000000E+20
  9
$EXTMAX
 10
-1.000000000000000E+20
 20
-1.000000000000000E+20
 30
-1.000000000000000E+20
  9
$LIMMIN
 10
0.0
 20
0.0
  9
$LIMMAX
 10
12.0
 20
9.0
  9
$ORTHOMODE
 70
     0
  9
$REGENMODE
 70
     1
  9
$FILLMODE
 70
     1
  9
$QTEXTMODE
 70
     0
  9
$MIRRTEXT
 70
     1
  9
$LTSCALE
 40
1.0
  9
$ATTMODE
 70
     1
  9
$TEXTSIZE
 40
0.2
  9
$TRACEWID
 40
0.05
  9
$TEXTSTYLE
  7
Standard
  9
$CLAYER
  8
0
  9
$CELTYPE
  6
ByLayer
  9
$CECOLOR
 62
   256
  9
$CELTSCALE
 40
1.0
  9
$DISPSILH
 70
     0
  9
$DIMSCALE
 40
1.0
  9
$DIMASZ
 40
0.18
  9
$DIMEXO
 40
0.0625
  9
$DIMDLI
 40
0.38
  9
$DIMRND
 40
0.0
  9
$DIMDLE
 40
0.0
  9
$DIMEXE
 40
0.18
  9
$DIMTP
 40
0.0
  9
$DIMTM
 40
0.0
  9
$DIMTXT
 40
0.18
  9
$DIMCEN
 40
0.09
  9
$DIMTSZ
 40
0.0
  9
$DIMTOL
 70
     0
  9
$DIMLIM
 70
     0
  9
$DIMTIH
 70
     1
  9
$DIMTOH
 70
     1
  9
$DIMSE1
 70
     0
  9
$DIMSE2
 70
     0
  9
$DIMTAD
 70
     0
  9
$DIMZIN
 70
     0
  9
$DIMBLK
  1

  9
$DIMASO
 70
     1
  9
$DIMSHO
 70
     1
  9
$DIMPOST
  1

  9
$DIMAPOST
  1

  9
$DIMALT
 70
     0
  9
$DIMALTD
 70
     2
  9
$DIMALTF
 40
25.4
  9
$DIMLFAC
 40
1.0
  9
$DIMTOFL
 70
     0
  9
$DIMTVP
 40
0.0
  9
$DIMTIX
 70
     0
  9
$DIMSOXD
 70
     0
  9
$DIMSAH
 70
     0
  9
$DIMBLK1
  1

  9
$DIMBLK2
  1

  9
$DIMSTYLE
  2
Standard
  9
$DIMCLRD
 70
     0
  9
$DIMCLRE
 70
     0
  9
$DIMCLRT
 70
     0
  9
$DIMTFAC
 40
1.0
  9
$DIMGAP
 40
0.09
  9
$DIMJUST
 70
     0
  9
$DIMSD1
 70
     0
  9
$DIMSD2
 70
     0
  9
$DIMTOLJ
 70
     1
  9
$DIMTZIN
 70
     0
  9
$DIMALTZ
 70
     0
  9
$DIMALTTZ
 70
     0
  9
$DIMUPT
 70
     0
  9
$DIMDEC
 70
     4
  9
$DIMTDEC
 70
     4
  9
$DIMALTU
 70
     2
  9
$DIMALTTD
 70
     2
  9
$DIMTXSTY
  7
Standard
  9
$DIMAUNIT
 70
     0
  9
$DIMADEC
 70
     0
  9
$DIMALTRND
 40
0.0
  9
$DIMAZIN
 70
     0
  9
$DIMDSEP
 70
    46
  9
$DIMATFIT
 70
     3
  9
$DIMFRAC
 70
     0
  9
$DIMLDRBLK
  1

  9
$DIMLUNIT
 70
     2
  9
$DIMLWD
 70
    -2
  9
$DIMLWE
 70
    -2
  9
$DIMTMOVE
 70
     0
  9
$DIMFXL
 40
1.0
  9
$DIMFXLON
 70
     0
  9
$DIMJOGANG
 40
0.7853981633974483
  9
$DIMTFILL
 70
     0
  9
$DIMTFILLCLR
 70
     0
  9
$DIMARCSYM
 70
     0
  9
$DIMLTYPE
  6

  9
$DIMLTEX1
  6

  9
$DIMLTEX2
  6

  9
$DIMTXTDIRECTION
 70
     0
  9
$LUNITS
 70
     2
  9
$LUPREC
 70
     4
  9
$SKETCHINC
 40
0.1
  9
$FILLETRAD
 40
0.5
  9
$AUNITS
 70
     0
  9
$AUPREC
 70
     0
  9
$MENU
  1
.
  9
$ELEVATION
 40
0.0
  9
$PELEVATION
 40
0.0
  9
$THICKNESS
 40
0.0
  9
$LIMCHECK
 70
     0
  9
$CHAMFERA
 40
0.5
  9
$CHAMFERB
 40
0.5
  9
$CHAMFERC
 40
1.0
  9
$CHAMFERD
 40
0.0
  9
$SKPOLY
 70
     0
  9
$TDCREATE
 40
2459334.503789155
  9
$TDUCREATE
 40
2459334.712122488
  9
$TDUPDATE
 40
2459334.503789861
  9
$TDUUPDATE
 40
2459334.712123194
  9
$TDINDWG
 40
0.0000000116
  9
$TDUSRTIMER
 40
0.0000000116
  9
$USRTIMER
 70
     1
  9
$ANGBASE
 50
0.0
  9
$ANGDIR
 70
     0
  9
$PDMODE
 70
     0
  9
$PDSIZE
 40
0.0
  9
$PLINEWID
 40
0.0
  9
$SPLFRAME
 70
     0
  9
$SPLINETYPE
 70
     6
  9
$SPLINESEGS
 70
     8
  9
$HANDSEED
  5
A2
  9
$SURFTAB1
 70
     6
  9
$SURFTAB2
 70
     6
  9
$SURFTYPE
 70
     6
  9
$SURFU
 70
     6
  9
$SURFV
 70
     6
  9
$UCSBASE
  2

  9
$UCSNAME
  2

  9
$UCSORG
 10
0.0
 20
0.0
 30
0.0
  9
$UCSXDIR
 10
1.0
 20
0.0
 30
0.0
  9
$UCSYDIR
 10
0.0
 20
1.0
 30
0.0
  9
$UCSORTHOREF
  2

  9
$UCSORTHOVIEW
 70
     0
  9
$UCSORGTOP
 10
0.0
 20
0.0
 30
0.0
  9
$UCSORGBOTTOM
 10
0.0
 20
0.0
 30
0.0
  9
$UCSORGLEFT
 10
0.0
 20
0.0
 30
0.0
  9
$UCSORGRIGHT
 10
0.0
 20
0.0
 30
0.0
  9
$UCSORGFRONT
 10
0.0
 20
0.0
 30
0.0
  9
$UCSORGBACK
 10
0.0
 20
0.0
 30
0.0
  9
$PUCSBASE
  2

  9
$PUCSNAME
  2

  9
$PUCSORG
 10
0.0
 20
0.0
 30
0.0
  9
$PUCSXDIR
 10
1.0
 20
0.0
 30
0.0
  9
$PUCSYDIR
 10
0.0
 20
1.0
 30
0.0
  9
$PUCSORTHOREF
  2

  9
$PUCSORTHOVIEW
 70
     0
  9
$PUCSORGTOP
 10
0.0
 20
0.0
 30
0.0
  9
$PUCSORGBOTTOM
 10
0.0
 20
0.0
 30
0.0
  9
$PUCSORGLEFT
 10
0.0
 20
0.0
 30
0.0
  9
$PUCSORGRIGHT
 10
0.0
 20
0.0
 30
0.0
  9
$PUCSORGFRONT
 10
0.0
 20
0.0
 30
0.0
  9
$PUCSORGBACK
 10
0.0
 20
0.0
 30
0.0
  9
$USERI1
 70
     0
  9
$USERI2
 70
     0
  9
$USERI3
 70
     0
  9
$USERI4
 70
     0
  9
$USERI5
 70
     0
  9
$USERR1
 40
0.0
  9
$USERR2
 40
0.0
  9
$USERR3
 40
0.0
  9
$USERR4
 40
0.0
  9
$USERR5
 40
0.0
  9
$WORLDVIEW
 70
     1
  9
$SHADEDGE
 70
     3
  9
$SHADEDIF
 70
    70
  9
$TILEMODE
 70
     1
  9
$MAXACTVP
 70
    64
  9
$PINSBASE
 10
0.0
 20
0.0
 30
0.0
  9
$PLIMCHECK
 70
     0
  9
$PEXTMIN
 10
1.000000000000000E+20
 20
1.000000000000000E+20
 30
1.000000000000000E+20
  9
$PEXTMAX
 10
-1.000000000000000E+20
 20
-1.000000000000000E+20
 30
-1.000000000000000E+20
  9
$PLIMMIN
 10
0.0
 20
0.0
  9
$PLIMMAX
 10
12.0
 20
9.0
  9
$UNITMODE
 70
     0
  9
$VISRETAIN
 70
     1
  9
$PLINEGEN
 70
     0
  9
$PSLTSCALE
 70
     1
  9
$TREEDEPTH
 70
  3020
  9
$CMLSTYLE
  2
Standard
  9
$CMLJUST
 70
     0
  9
$CMLSCALE
 40
1.0
  9
$PROXYGRAPHICS
 70
     1
  9
$MEASUREMENT
 70
     0
  9
$CELWEIGHT
370
    -1
  9
$ENDCAPS
280
     0
  9
$JOINSTYLE
280
     0
  9
$LWDISPLAY
290
     1
  9
$INSUNITS
 70
     1
  9
$HYPERLINKBASE
  1

  9
$STYLESHEET
  1

  9
$XEDIT
290
     1
  9
$CEPSNTYPE
380
     0
  9
$PSTYLEMODE
290
     1
  9
$FINGERPRINTGUID
  2
{FDCFBC68-079F-400E-8BBA-9EB462C533C2}
  9
$VERSIONGUID
  2
{FAEB1C32-E019-11D5-929B-00C0DF256EC4}
  9
$EXTNAMES
290
     1
  9
$PSVPSCALE
 40
0.0
  9
$OLESTARTUP
290
     0
  9
$SORTENTS
280
   127
  9
$INDEXCTL
280
     0
  9
$HIDETEXT
280
     1
  9
$XCLIPFRAME
280
     2
  9
$HALOGAP
280
     0
  9
$OBSCOLOR
 70
   257
  9
$OBSLTYPE
280
     0
  9
$INTERSECTIONDISPLAY
280
     0
  9
$INTERSECTIONCOLOR
 70
   257
  9
$DIMASSOC
280
     2
  9
$PROJECTNAME
  1

  9
$CAMERADISPLAY
290
     0
  9
$LENSLENGTH
 40
50.0
  9
$CAMERAHEIGHT
 40
0.0
  9
$STEPSPERSEC
 40
2.0
  9
$STEPSIZE
 40
6.0
  9
$3DDWFPREC
 40
2.0
  9
$PSOLWIDTH
 40
0.25
  9
$PSOLHEIGHT
 40
4.0
  9
$LOFTANG1
 40
1.570796326794897
  9
$LOFTANG2
 40
1.570796326794897
  9
$LOFTMAG1
 40
0.0
  9
$LOFTMAG2
 40
0.0
  9
$LOFTPARAM
 70
     7
  9
$LOFTNORMALS
280
     1
  9
$LATITUDE
 40
37.795
  9
$LONGITUDE
 40
-122.394
  9
$NORTHDIRECTION
 40
0.0
  9
$TIMEZONE
 70
 -8000
  9
$LIGHTGLYPHDISPLAY
280
     1
  9
$TILEMODELIGHTSYNCH
280
     1
  9
$CMATERIAL
347
3C
  9
$SOLIDHIST
280
     1
  9
$SHOWHIST
280
     1
  9
$DWFFRAME
280
     2
  9
$DGNFRAME
280
     2
  9
$REALWORLDSCALE
290
     1
  9
$INTERFERECOLOR
 62
   256
  9
$CSHADOW
280
     0
  9
$SHADOWPLANELOCATION
 40
0.0
  0
ENDSEC
  0
SECTION
  2
CLASSES
  0
CLASS
  1
ACDBDICTIONARYWDFLT
  2
AcDbDictionaryWithDefault
  3
ObjectDBX Classes
 90
        0
 91
        4
280
     0
281
     0
  0
CLASS
  1
VISUALSTYLE
  2
AcDbVisualStyle
  3
ObjectDBX Classes
 90
     4095
 91
        4
280
     0
281
     0
  0
CLASS
  1
MATERIAL
  2
AcDbMaterial
  3
ObjectDBX Classes
 90
     1153
 91
        4
280
     0
281
     0
  0
CLASS
  1
SUN
  2
AcDbSun
  3
SCENEOE
 90
     1024
 91
        4
280
     0
281
     0
  0
ENDSEC
  0
SECTION
  2
TABLES
  0
TABLE
  2
VPORT
  5
8
330
0
100
AcDbSymbolTable
 70
     1
  0
VPORT
  5
29
330
8
100
AcDbSymbolTableRecord
100
AcDbViewportTableRecord
  2
*Active
 70
     0
 10
0.0
 20
0.0
 11
1.0
 21
1.0
 12
0.0
 22
0.0
 13
0.0
 23
0.0
 14
0.5
 24
0.5
 15
0.5
 25
0.5
 16
0.0
 26
0.0
 36
1.0
 17
107.9499999730125
 27
-139.699999965075
 37
0.0
 40
279.39999993015
 41
0.7727272727272728
 42
50.0
 43
0.0
 44
0.0
 50
0.0
 51
0.0
 71
     0
 72
   100
 73
     1
 74
     3
 75
     0
 76
     0
 77
     0
 78
     0
281
     0
 65
     1
110
0.0
120
0.0
130
0.0
111
1.0
121
0.0
131
0.0
112
0.0
122
1.0
132
0.0
 79
     0
146
0.0
 60
     3
 61
     5
292
     1
282
     1
141
0.0
142
0.0
 63
   250
361
3F
  0
ENDTAB
  0
TABLE
  2
LTYPE
  5
5
330
0
100
AcDbSymbolTable
 70
     1
  0
LTYPE
  5
14
330
5
100
AcDbSymbolTableRecord
100
AcDbLinetypeTableRecord
  2
ByBlock
 70
     0
  3

 72
    65
 73
     0
 40
0.0
  0
LTYPE
  5
15
330
5
100
AcDbSymbolTableRecord
100
AcDbLinetypeTableRecord
  2
ByLayer
 70
     0
  3

 72
    65
 73
     0
 40
0.0
  0
LTYPE
  5
16
330
5
100
AcDbSymbolTableRecord
100
AcDbLinetypeTableRecord
  2
Continuous
 70
     0
  3
Solid line
 72
    65
 73
     0
 40
0.0
  0
ENDTAB
  0
TABLE
  2
LAYER
  5
2
330
0
100
AcDbSymbolTable
 70
     2
  0
LAYER
  5
10
330
2
100
AcDbSymbolTableRecord
100
AcDbLayerTableRecord
  2
0
 70
     0
 62
     7
  6
Continuous
370
    -3
390
F
347
3E
  0
LAYER
  5
40
330
2
100
AcDbSymbolTableRecord
100
AcDbLayerTableRecord
  2
Capa 1
 70
     0
 62
     7
  6
Continuous
370
    -3
390
F
347
3E
  0
ENDTAB
  0
TABLE
  2
STYLE
  5
3
330
0
100
AcDbSymbolTable
 70
     1
  0
STYLE
  5
11
330
3
100
AcDbSymbolTableRecord
100
AcDbTextStyleTableRecord
  2
Standard
 70
     0
 40
0.0
 41
1.0
 50
0.0
 71
     0
 42
0.2
  3
txt
  4

  0
ENDTAB
  0
TABLE
  2
VIEW
  5
6
330
0
100
AcDbSymbolTable
 70
     0
  0
ENDTAB
  0
TABLE
  2
UCS
  5
7
330
0
100
AcDbSymbolTable
 70
     0
  0
ENDTAB
  0
TABLE
  2
APPID
  5
9
330
0
100
AcDbSymbolTable
 70
     1
  0
APPID
  5
12
330
9
100
AcDbSymbolTableRecord
100
AcDbRegAppTableRecord
  2
ACAD
 70
     0
  0
ENDTAB
  0
TABLE
  2
DIMSTYLE
  5
A
330
0
100
AcDbSymbolTable
 70
     1
100
AcDbDimStyleTable
  0
DIMSTYLE
105
27
330
A
100
AcDbSymbolTableRecord
100
AcDbDimStyleTableRecord
  2
Standard
 70
     0
178
     0
340
11
  0
ENDTAB
  0
TABLE
  2
BLOCK_RECORD
  5
1
330
0
100
AcDbSymbolTable
 70
     2
  0
BLOCK_RECORD
  5
1F
330
1
100
AcDbSymbolTableRecord
100
AcDbBlockTableRecord
  2
*Model_Space
340
22
 70
     0
280
     1
281
     0
  0
BLOCK_RECORD
  5
1B
330
1
100
AcDbSymbolTableRecord
100
AcDbBlockTableRecord
  2
*Paper_Space
340
1E
 70
     0
280
     1
281
     0
  0
BLOCK_RECORD
  5
23
330
1
100
AcDbSymbolTableRecord
100
AcDbBlockTableRecord
  2
*Paper_Space0
340
26
 70
     0
280
     1
281
     0
  0
BLOCK_RECORD
  5
41
330
1
100
AcDbSymbolTableRecord
100
AcDbBlockTableRecord
  2
block 2
340
0
102
{BLKREFS
331
42
102
}
 70
     0
280
     1
281
     0
  0
ENDTAB
  0
ENDSEC
  0
SECTION
  2
BLOCKS
  0
BLOCK
  5
20
330
1F
100
AcDbEntity
  8
0
100
AcDbBlockBegin
  2
*Model_Space
 70
     0
 10
0.0
 20
0.0
 30
0.0
  3
*Model_Space
  1

  0
ENDBLK
  5
21
330
1F
100
AcDbEntity
  8
0
100
AcDbBlockEnd
  0
BLOCK
  5
1C
330
1B
100
AcDbEntity
 67
     1
  8
0
100
AcDbBlockBegin
  2
*Paper_Space
 70
     0
 10
0.0
 20
0.0
 30
0.0
  3
*Paper_Space
  1

  0
ENDBLK
  5
1D
330
1B
100
AcDbEntity
 67
     1
  8
0
100
AcDbBlockEnd
  0
BLOCK
  5
24
330
23
100
AcDbEntity
  8
0
100
AcDbBlockBegin
  2
*Paper_Space0
 70
     0
 10
0.0
 20
0.0
 30
0.0
  3
*Paper_Space0
  1

  0
ENDBLK
  5
25
330
23
100
AcDbEntity
  8
0
100
AcDbBlockEnd
  0
BLOCK
  5
43
330
41
100
AcDbEntity
  8
0
100
AcDbBlockBegin
  2
block 2
 70
     0
 10
0.0
 20
0.0
 30
0.0
  3
block 2
  1

  0
SPLINE
  5
45
330
41
100
AcDbEntity
  8
Capa 1
370
     0
100
AcDbSpline
210
0.0
220
0.0
230
1.0
 70
    11
 71
     3
 72
    32
 73
    28
 74
     0
 42
0.0000000001
 43
0.0000000001
 12
1.0
 22
0.0
 32
0.0
 13
1.0
 23
0.0
 33
0.0
 40
0.0
 40
0.0
 40
0.0
 40
0.0
 40
1.0
 40
1.0
 40
1.0
 40
2.0
 40
2.0
 40
2.0
 40
3.0
 40
3.0
 40
3.0
 40
4.0
 40
4.0
 40
4.0
 40
5.0
 40
5.0
 40
5.0
 40
6.0
 40
6.0
 40
6.0
 40
7.0
 40
7.0
 40
7.0
 40
8.0
 40
8.0
 40
8.0
 40
9.0
 40
9.0
 40
9.0
 40
9.0
 10
19.59983723468337
 20
-91.80438772661488
 30
0.0
 10
19.59983723468337
 20
-91.80438772661488
 30
0.0
 10
21.8050428547918
 20
-91.80438772661488
 30
0.0
 10
21.8050428547918
 20
-91.80438772661488
 30
0.0
 10
22.58122286761859
 20
-91.80438772661488
 30
0.0
 10
23.20461289567454
 20
-92.02590736631645
 30
0.0
 10
23.67504068418541
 20
-92.46894664571957
 30
0.0
 10
24.14546847269627
 20
-92.9119859251227
 30
0.0
 10
24.38076849433884
 20
-93.49610186464682
 30
0.0
 10
24.38076849433884
 20
-94.2212944642919
 30
0.0
 10
24.38076849433884
 20
-94.98576115246884
 30
0.0
 10
24.14254014153381
 20
-95.58469100257953
 30
0.0
 10
23.66625569069802
 20
-96.01773950507543
 30
0.0
 10
23.18997123986223
 20
-96.4509602623456
 30
0.0
 10
22.53023545443689
 20
-96.6676567683678
 30
0.0
 10
21.68739284397051
 20
-96.6676567683678
 30
0.0
 10
21.68739284397051
 20
-96.6676567683678
 30
0.0
 10
21.38164061965459
 20
-96.6676567683678
 30
0.0
 10
21.38164061965459
 20
-96.6676567683678
 30
0.0
 10
21.38164061965459
 20
-96.6676567683678
 30
0.0
 10
21.38164061965459
 20
-99.65489906362795
 30
0.0
 10
21.38164061965459
 20
-99.65489906362795
 30
0.0
 10
21.38164061965459
 20
-99.65489906362795
 30
0.0
 10
19.59983723468337
 20
-99.65489906362795
 30
0.0
 10
19.59983723468337
 20
-99.65489906362795
 30
0.0
 10
19.59983723468337
 20
-99.65489906362795
 30
0.0
 10
19.59983723468337
 20
-91.80438772661488
 30
0.0
 10
19.59983723468337
 20
-91.80438772661488
 30
0.0
  0
SPLINE
  5
46
330
41
100
AcDbEntity
  8
Capa 1
370
     0
100
AcDbSpline
210
0.0
220
0.0
230
1.0
 70
    11
 71
     3
 72
    20
 73
    16
 74
     0
 42
0.0000000001
 43
0.0000000001
 12
1.0
 22
0.0
 32
0.0
 13
1.0
 23
0.0
 33
0.0
 40
0.0
 40
0.0
 40
0.0
 40
0.0
 40
1.0
 40
1.0
 40
1.0
 40
2.0
 40
2.0
 40
2.0
 40
3.0
 40
3.0
 40
3.0
 40
4.0
 40
4.0
 40
4.0
 40
5.0
 40
5.0
 40
5.0
 40
5.0
 10
21.38164061965459
 20
-93.30972219889479
 30
0.0
 10
21.38164061965459
 20
-93.30972219889479
 30
0.0
 10
21.38164061965459
 20
-95.16215004131364
 30
0.0
 10
21.38164061965459
 20
-95.16215004131364
 30
0.0
 10
21.78144395071783
 20
-95.15439857647182
 30
0.0
 10
22.07651637902948
 20
-95.07791745669927
 30
0.0
 10
22.26668564981527
 20
-94.93287893677025
 30
0.0
 10
22.4566826658268
 20
-94.78784041684123
 30
0.0
 10
22.5517673012197
 20
-94.5583970575236
 30
0.0
 10
22.5517673012197
 20
-94.2447211135916
 30
0.0
 10
22.5517673012197
 20
-93.9076185203599
 30
0.0
 10
22.45961099698927
 20
-93.66956242232914
 30
0.0
 10
22.27547064330266
 20
-93.53038056472505
 30
0.0
 10
22.09115803484179
 20
-93.39119870712095
 30
0.0
 10
21.79332953014195
 20
-93.31764591851088
 30
0.0
 10
21.38164061965459
 20
-93.30972219889479
 30
0.0
  0
SPLINE
  5
47
330
41
100
AcDbEntity
  8
Capa 1
370
     0
100
AcDbSpline
210
0.0
220
0.0
230
1.0
 70
    11
 71
     3
 72
    41
 73
    37
 74
     0
 42
0.0000000001
 43
0.0000000001
 12
1.0
 22
0.0
 32
0.0
 13
1.0
 23
0.0
 33
0.0
 40
0.0
 40
0.0
 40
0.0
 40
0.0
 40
1.0
 40
1.0
 40
1.0
 40
2.0
 40
2.0
 40
2.0
 40
3.0
 40
3.0
 40
3.0
 40
4.0
 40
4.0
 40
4.0
 40
5.0
 40
5.0
 40
5.0
 40
6.0
 40
6.0
 40
6.0
 40
7.0
 40
7.0
 40
7.0
 40
8.0
 40
8.0
 40
8.0
 40
9.0
 40
9.0
 40
9.0
 40
10.0
 40
10.0
 40
10.0
 40
11.0
 40
11.0
 40
11.0
 40
12.0
 40
12.0
 40
12.0
 40
12.0
 10
25.72728406474874
 20
-91.80438772661488
 30
0.0
 10
25.72728406474874
 20
-91.80438772661488
 30
0.0
 10
27.80312634938603
 20
-91.80438772661488
 30
0.0
 10
27.80312634938603
 20
-91.80438772661488
 30
0.0
 10
28.64200710004436
 20
-91.80438772661488
 30
0.0
 10
29.30449896185791
 20
-92.02005070399152
 30
0.0
 10
29.79077418960092
 20
-92.45120440397054
 30
0.0
 10
30.27670490779541
 20
-92.88253035872381
 30
0.0
 10
30.51992864905405
 20
-93.46854110076481
 30
0.0
 10
30.51992864905405
 20
-94.20958113964205
 30
0.0
 10
30.51992864905405
 20
-94.58974742643937
 30
0.0
 10
30.42777234482361
 20
-94.95733911471554
 30
0.0
 10
30.24345973636275
 20
-95.31218394969626
 30
0.0
 10
30.05914712790188
 20
-95.667028784677
 30
0.0
 10
29.79077418960092
 20
-95.93454044910665
 30
0.0
 10
29.43782415713707
 20
-96.11489119775948
 30
0.0
 10
29.43782415713707
 20
-96.11489119775948
 30
0.0
 10
30.86099310209378
 20
-99.65489906362795
 30
0.0
 10
30.86099310209378
 20
-99.65489906362795
 30
0.0
 10
30.86099310209378
 20
-99.65489906362795
 30
0.0
 10
28.97928194805032
 20
-99.65489906362795
 30
0.0
 10
28.97928194805032
 20
-99.65489906362795
 30
0.0
 10
28.97928194805032
 20
-99.65489906362795
 30
0.0
 10
27.53854301611884
 20
-96.07957896903567
 30
0.0
 10
27.53854301611884
 20
-96.07957896903567
 30
0.0
 10
27.53854301611884
 20
-96.07957896903567
 30
0.0
 10
27.50908744971995
 20
-96.07957896903567
 30
0.0
 10
27.50908744971995
 20
-96.07957896903567
 30
0.0
 10
27.50908744971995
 20
-96.07957896903567
 30
0.0
 10
27.50908744971995
 20
-99.65489906362795
 30
0.0
 10
27.50908744971995
 20
-99.65489906362795
 30
0.0
 10
27.50908744971995
 20
-99.65489906362795
 30
0.0
 10
25.72728406474874
 20
-99.65489906362795
 30
0.0
 10
25.72728406474874
 20
-99.65489906362795
 30
0.0
 10
25.72728406474874
 20
-99.65489906362795
 30
0.0
 10
25.72728406474874
 20
-91.80438772661488
 30
0.0
 10
25.72728406474874
 20
-91.80438772661488
 30
0.0
  0
SPLINE
  5
48
330
41
100
AcDbEntity
  8
Capa 1
370
     0
100
AcDbSpline
210
0.0
220
0.0
230
1.0
 70
    11
 71
     3
 72
    17
 73
    13
 74
     0
 42
0.0000000001
 43
0.0000000001
 12
1.0
 22
0.0
 32
0.0
 13
1.0
 23
0.0
 33
0.0
 40
0.0
 40
0.0
 40
0.0
 40
0.0
 40
1.0
 40
1.0
 40
1.0
 40
2.0
 40
2.0
 40
2.0
 40
3.0
 40
3.0
 40
3.0
 40
4.0
 40
4.0
 40
4.0
 40
4.0
 10
27.50908744971995
 20
-93.3216077783189
 30
0.0
 10
27.50908744971995
 20
-93.3216077783189
 30
0.0
 10
27.50908744971995
 20
-95.1857489453876
 30
0.0
 10
27.50908744971995
 20
-95.1857489453876
 30
0.0
 10
28.29698078719659
 20
-95.17007376092971
 30
0.0
 10
28.69109971070917
 20
-94.89360484823841
 30
0.0
 10
28.69109971070917
 20
-94.35651446208796
 30
0.0
 10
28.69109971070917
 20
-93.99185110497426
 30
0.0
 10
28.59997693512431
 20
-93.73122963151512
 30
0.0
 10
28.41755912918033
 20
-93.57447778693624
 30
0.0
 10
28.23531357801062
 20
-93.41772594235738
 30
0.0
 10
27.93248968485716
 20
-93.33332110296875
 30
0.0
 10
27.50908744971995
 20
-93.3216077783189
 30
0.0
  0
SPLINE
  5
49
330
41
100
AcDbEntity
  8
Capa 1
370
     0
100
AcDbSpline
210
0.0
220
0.0
230
1.0
 70
    11
 71
     3
 72
    29
 73
    25
 74
     0
 42
0.0000000001
 43
0.0000000001
 12
1.0
 22
0.0
 32
0.0
 13
1.0
 23
0.0
 33
0.0
 40
0.0
 40
0.0
 40
0.0
 40
0.0
 40
1.0
 40
1.0
 40
1.0
 40
2.0
 40
2.0
 40
2.0
 40
3.0
 40
3.0
 40
3.0
 40
4.0
 40
4.0
 40
4.0
 40
5.0
 40
5.0
 40
5.0
 40
6.0
 40
6.0
 40
6.0
 40
7.0
 40
7.0
 40
7.0
 40
8.0
 40
8.0
 40
8.0
 40
8.0
 10
34.42459987203621
 20
-99.84903019422177
 30
0.0
 10
33.47582057539841
 20
-99.84903019422177
 30
0.0
 10
32.7525227782702
 20
-99.48540036575365
 30
0.0
 10
32.25470648065161
 20
-98.75814070881741
 30
0.0
 10
31.75671792825874
 20
-98.03088105188117
 30
0.0
 10
31.50780977944944
 20
-96.9813327122998
 30
0.0
 10
31.50780977944944
 20
-95.6091511805248
 30
0.0
 10
31.50780977944944
 20
-94.34290633492122
 30
0.0
 10
31.75775145690431
 20
-93.35588647839714
 30
0.0
 10
32.25763481181406
 20
-92.64826386572683
 30
0.0
 10
32.75751816672382
 20
-91.94064125305651
 30
0.0
 10
33.45428872861559
 20
-91.58682994672135
 30
0.0
 10
34.34811875226367
 20
-91.58682994672135
 30
0.0
 10
35.30085990870951
 20
-91.58682994672135
 30
0.0
 10
36.02898083951706
 20
-91.94167478170209
 30
0.0
 10
36.53282605423485
 20
-92.65119219688928
 30
0.0
 10
37.03649901417837
 20
-93.36070961207649
 30
0.0
 10
37.2885077489244
 20
-94.37408444906274
 30
0.0
 10
37.2885077489244
 20
-95.69148896262227
 30
0.0
 10
37.2885077489244
 20
-97.00872122140754
 30
0.0
 10
37.04046087398641
 20
-98.03088105188117
 30
0.0
 10
36.5445393788847
 20
-98.75814070881741
 30
0.0
 10
36.04861788378299
 20
-99.48540036575365
 30
0.0
 10
35.34202879975825
 20
-99.84903019422177
 30
0.0
 10
34.42459987203621
 20
-99.84903019422177
 30
0.0
  0
SPLINE
  5
4A
330
41
100
AcDbEntity
  8
Capa 1
370
     0
100
AcDbSpline
210
0.0
220
0.0
230
1.0
 70
    11
 71
     3
 72
    23
 73
    19
 74
     0
 42
0.0000000001
 43
0.0000000001
 12
1.0
 22
0.0
 32
0.0
 13
1.0
 23
0.0
 33
0.0
 40
0.0
 40
0.0
 40
0.0
 40
0.0
 40
1.0
 40
1.0
 40
1.0
 40
2.0
 40
2.0
 40
2.0
 40
3.0
 40
3.0
 40
3.0
 40
4.0
 40
4.0
 40
4.0
 40
5.0
 40
5.0
 40
5.0
 40
6.0
 40
6.0
 40
6.0
 40
6.0
 10
34.36000433168778
 20
-93.36863333169256
 30
0.0
 10
33.7169772593659
 20
-93.36863333169256
 30
0.0
 10
33.39554985059208
 20
-94.12328149773654
 30
0.0
 10
33.39554985059208
 20
-95.6325778298245
 30
0.0
 10
33.39554985059208
 20
-96.60495603053627
 30
0.0
 10
33.47685410404398
 20
-97.2536675104088
 30
0.0
 10
33.63963486572204
 20
-97.57905677899066
 30
0.0
 10
33.80224337262583
 20
-97.9044460475725
 30
0.0
 10
34.03840466813971
 20
-98.06722680925056
 30
0.0
 10
34.34811875226367
 20
-98.06722680925056
 30
0.0
 10
34.68143174046159
 20
-98.06722680925056
 30
0.0
 10
34.93723008024139
 20
-97.9044460475725
 30
0.0
 10
35.11551377160307
 20
-97.57905677899066
 30
0.0
 10
35.29396971773901
 20
-97.2536675104088
 30
0.0
 10
35.38319769080698
 20
-96.61666935518612
 30
0.0
 10
35.38319769080698
 20
-95.66789005854831
 30
0.0
 10
35.38319769080698
 20
-94.13499482238639
 30
0.0
 10
35.04213323776725
 20
-93.36863333169256
 30
0.0
 10
34.36000433168778
 20
-93.36863333169256
 30
0.0
  0
POLYLINE
  5
4B
330
41
100
AcDbEntity
  8
Capa 1
370
     0
100
AcDb2dPolyline
 66
     1
 10
0.0
 20
0.0
 30
0.0
  0
VERTEX
  5
4C
330
4B
100
AcDbEntity
  8
Capa 1
370
     0
100
AcDbVertex
100
AcDb2dVertex
 10
33.44843206629067
 20
-91.175141036234
 30
0.0
  0
VERTEX
  5
4D
330
4B
100
AcDbEntity
  8
Capa 1
370
     0
100
AcDbVertex
100
AcDb2dVertex
 10
34.27180988726538
 20
-89.41693655533675
 30
0.0
  0
VERTEX
  5
4E
330
4B
100
AcDbEntity
  8
Capa 1
370
     0
100
AcDbVertex
100
AcDb2dVertex
 10
36.12406547490995
 20
-89.41693655533675
 30
0.0
  0
VERTEX
  5
4F
330
4B
100
AcDbEntity
  8
Capa 1
370
     0
100
AcDbVertex
100
AcDb2dVertex
 10
34.50108099180876
 20
-91.175141036234
 30
0.0
  0
VERTEX
  5
50
330
4B
100
AcDbEntity
  8
Capa 1
370
     0
100
AcDbVertex
100
AcDb2dVertex
 10
33.44843206629067
 20
-91.175141036234
 30
0.0
  0
SEQEND
  5
51
330
4B
100
AcDbEntity
  8
Capa 1
370
     0
  0
SPLINE
  5
52
330
41
100
AcDbEntity
  8
Capa 1
370
     0
100
AcDbSpline
210
0.0
220
0.0
230
1.0
 70
    11
 71
     3
 72
    53
 73
    49
 74
     0
 42
0.0000000001
 43
0.0000000001
 12
1.0
 22
0.0
 32
0.0
 13
1.0
 23
0.0
 33
0.0
 40
0.0
 40
0.0
 40
0.0
 40
0.0
 40
1.0
 40
1.0
 40
1.0
 40
2.0
 40
2.0
 40
2.0
 40
3.0
 40
3.0
 40
3.0
 40
4.0
 40
4.0
 40
4.0
 40
5.0
 40
5.0
 40
5.0
 40
6.0
 40
6.0
 40
6.0
 40
7.0
 40
7.0
 40
7.0
 40
8.0
 40
8.0
 40
8.0
 40
9.0
 40
9.0
 40
9.0
 40
10.0
 40
10.0
 40
10.0
 40
11.0
 40
11.0
 40
11.0
 40
12.0
 40
12.0
 40
12.0
 40
13.0
 40
13.0
 40
13.0
 40
14.0
 40
14.0
 40
14.0
 40
15.0
 40
15.0
 40
15.0
 40
16.0
 40
16.0
 40
16.0
 40
16.0
 10
38.04711777477642
 20
-91.80438772661488
 30
0.0
 10
38.04711777477642
 20
-91.80438772661488
 30
0.0
 10
40.0228800355672
 20
-91.80438772661488
 30
0.0
 10
40.0228800355672
 20
-91.80438772661488
 30
0.0
 10
40.52862005280188
 20
-93.0354925982689
 30
0.0
 10
40.80508896549318
 20
-93.74104815364808
 30
0.0
 10
40.85211451886683
 20
-93.92139890230091
 30
0.0
 10
40.85211451886683
 20
-93.92139890230091
 30
0.0
 10
40.87554116816654
 20
-93.92139890230091
 30
0.0
 10
40.87554116816654
 20
-93.92139890230091
 30
0.0
 10
40.88346488778261
 20
-93.86644962931118
 30
0.0
 10
40.957878950264
 20
-93.66663409116669
 30
0.0
 10
41.09912786515925
 20
-93.3216077783189
 30
0.0
 10
41.09912786515925
 20
-93.3216077783189
 30
0.0
 10
41.69891898914124
 20
-91.80438772661488
 30
0.0
 10
41.69891898914124
 20
-91.80438772661488
 30
0.0
 10
41.69891898914124
 20
-91.80438772661488
 30
0.0
 10
43.67468124993203
 20
-91.80438772661488
 30
0.0
 10
43.67468124993203
 20
-91.80438772661488
 30
0.0
 10
43.67468124993203
 20
-91.80438772661488
 30
0.0
 10
41.85170897391207
 20
-95.55024004772703
 30
0.0
 10
41.85170897391207
 20
-95.55024004772703
 30
0.0
 10
41.85170897391207
 20
-95.55024004772703
 30
0.0
 10
43.82764348947712
 20
-99.65489906362795
 30
0.0
 10
43.82764348947712
 20
-99.65489906362795
 30
0.0
 10
43.82764348947712
 20
-99.65489906362795
 30
0.0
 10
41.85170897391207
 20
-99.65489906362795
 30
0.0
 10
41.85170897391207
 20
-99.65489906362795
 30
0.0
 10
41.22056748101431
 20
-98.17695310045576
 30
0.0
 10
40.89121635262442
 20
-97.38113604336306
 30
0.0
 10
40.86382784351668
 20
-97.26744789234981
 30
0.0
 10
40.86382784351668
 20
-97.26744789234981
 30
0.0
 10
40.84022893944272
 20
-97.26744789234981
 30
0.0
 10
40.84022893944272
 20
-97.26744789234981
 30
0.0
 10
40.77356634180314
 20
-97.518250843676
 30
0.0
 10
40.68537189738074
 20
-97.76715899248529
 30
0.0
 10
40.57564560617553
 20
-98.01417233877771
 30
0.0
 10
40.57564560617553
 20
-98.01417233877771
 30
0.0
 10
39.85234780904733
 20
-99.65489906362795
 30
0.0
 10
39.85234780904733
 20
-99.65489906362795
 30
0.0
 10
39.85234780904733
 20
-99.65489906362795
 30
0.0
 10
37.90586885988117
 20
-99.65489906362795
 30
0.0
 10
37.90586885988117
 20
-99.65489906362795
 30
0.0
 10
37.90586885988117
 20
-99.65489906362795
 30
0.0
 10
39.84063448439748
 20
-95.573838951801
 30
0.0
 10
39.84063448439748
 20
-95.573838951801
 30
0.0
 10
39.84063448439748
 20
-95.573838951801
 30
0.0
 10
38.04711777477642
 20
-91.80438772661488
 30
0.0
 10
38.04711777477642
 20
-91.80438772661488
 30
0.0
  0
POLYLINE
  5
53
330
41
100
AcDbEntity
  8
Capa 1
370
     0
100
AcDb2dPolyline
 66
     1
 10
0.0
 20
0.0
 30
0.0
  0
VERTEX
  5
54
330
53
100
AcDbEntity
  8
Capa 1
370
     0
100
AcDbVertex
100
AcDb2dVertex
 10
44.85669351092125
 20
-91.80438772661488
 30
0.0
  0
VERTEX
  5
55
330
53
100
AcDbEntity
  8
Capa 1
370
     0
100
AcDbVertex
100
AcDb2dVertex
 10
46.63849689589246
 20
-91.80438772661488
 30
0.0
  0
VERTEX
  5
56
330
53
100
AcDbEntity
  8
Capa 1
370
     0
100
AcDbVertex
100
AcDb2dVertex
 10
46.63849689589246
 20
-99.65489906362795
 30
0.0
  0
VERTEX
  5
57
330
53
100
AcDbEntity
  8
Capa 1
370
     0
100
AcDbVertex
100
AcDb2dVertex
 10
44.85669351092125
 20
-99.65489906362795
 30
0.0
  0
VERTEX
  5
58
330
53
100
AcDbEntity
  8
Capa 1
370
     0
100
AcDbVertex
100
AcDb2dVertex
 10
44.85669351092125
 20
-91.80438772661488
 30
0.0
  0
SEQEND
  5
59
330
53
100
AcDbEntity
  8
Capa 1
370
     0
  0
SPLINE
  5
5A
330
41
100
AcDbEntity
  8
Capa 1
370
     0
100
AcDbSpline
210
0.0
220
0.0
230
1.0
 70
    11
 71
     3
 72
    50
 73
    46
 74
     0
 42
0.0000000001
 43
0.0000000001
 12
1.0
 22
0.0
 32
0.0
 13
1.0
 23
0.0
 33
0.0
 40
0.0
 40
0.0
 40
0.0
 40
0.0
 40
1.0
 40
1.0
 40
1.0
 40
2.0
 40
2.0
 40
2.0
 40
3.0
 40
3.0
 40
3.0
 40
4.0
 40
4.0
 40
4.0
 40
5.0
 40
5.0
 40
5.0
 40
6.0
 40
6.0
 40
6.0
 40
7.0
 40
7.0
 40
7.0
 40
8.0
 40
8.0
 40
8.0
 40
9.0
 40
9.0
 40
9.0
 40
10.0
 40
10.0
 40
10.0
 40
11.0
 40
11.0
 40
11.0
 40
12.0
 40
12.0
 40
12.0
 40
13.0
 40
13.0
 40
13.0
 40
14.0
 40
14.0
 40
14.0
 40
15.0
 40
15.0
 40
15.0
 40
15.0
 10
48.94963920217231
 20
-91.80438772661488
 30
0.0
 10
48.94963920217231
 20
-91.80438772661488
 30
0.0
 10
51.20187037565439
 20
-91.80438772661488
 30
0.0
 10
51.20187037565439
 20
-91.80438772661488
 30
0.0
 10
51.52329778442821
 20
-93.4979966671637
 30
0.0
 10
51.77616779304554
 20
-94.95441078355307
 30
0.0
 10
51.96048040150641
 20
-96.17363007578298
 30
0.0
 10
51.96048040150641
 20
-96.17363007578298
 30
0.0
 10
52.15461153210024
 20
-94.95630558606996
 30
0.0
 10
52.15461153210024
 20
-94.95630558606996
 30
0.0
 10
52.23298745438967
 20
-94.48208819252531
 30
0.0
 10
52.31722003900403
 20
-94.01941186885627
 30
0.0
 10
52.40748154071758
 20
-93.56844886983706
 30
0.0
 10
52.40748154071758
 20
-93.56844886983706
 30
0.0
 10
52.75440265608223
 20
-91.80438772661488
 30
0.0
 10
52.75440265608223
 20
-91.80438772661488
 30
0.0
 10
52.75440265608223
 20
-91.80438772661488
 30
0.0
 10
55.05365938293798
 20
-91.80438772661488
 30
0.0
 10
55.05365938293798
 20
-91.80438772661488
 30
0.0
 10
55.05365938293798
 20
-91.80438772661488
 30
0.0
 10
55.94748940658604
 20
-99.65489906362795
 30
0.0
 10
55.94748940658604
 20
-99.65489906362795
 30
0.0
 10
55.94748940658604
 20
-99.65489906362795
 30
0.0
 10
54.18342826336387
 20
-99.65489906362795
 30
0.0
 10
54.18342826336387
 20
-99.65489906362795
 30
0.0
 10
54.18342826336387
 20
-99.65489906362795
 30
0.0
 10
53.70714381252808
 20
-94.25660669301571
 30
0.0
 10
53.70714381252808
 20
-94.25660669301571
 30
0.0
 10
53.70714381252808
 20
-94.25660669301571
 30
0.0
 10
52.60746933363633
 20
-99.65489906362795
 30
0.0
 10
52.60746933363633
 20
-99.65489906362795
 30
0.0
 10
52.60746933363633
 20
-99.65489906362795
 30
0.0
 10
51.40185816857315
 20
-99.65489906362795
 30
0.0
 10
51.40185816857315
 20
-99.65489906362795
 30
0.0
 10
51.40185816857315
 20
-99.65489906362795
 30
0.0
 10
50.24930147398282
 20
-94.2447211135916
 30
0.0
 10
50.24930147398282
 20
-94.2447211135916
 30
0.0
 10
50.24930147398282
 20
-94.2447211135916
 30
0.0
 10
49.7905870101218
 20
-99.65489906362795
 30
0.0
 10
49.7905870101218
 20
-99.65489906362795
 30
0.0
 10
49.7905870101218
 20
-99.65489906362795
 30
0.0
 10
48.10283473189791
 20
-99.65489906362795
 30
0.0
 10
48.10283473189791
 20
-99.65489906362795
 30
0.0
 10
48.10283473189791
 20
-99.65489906362795
 30
0.0
 10
48.94963920217231
 20
-91.80438772661488
 30
0.0
 10
48.94963920217231
 20
-91.80438772661488
 30
0.0
  0
POLYLINE
  5
5B
330
41
100
AcDbEntity
  8
Capa 1
370
     0
100
AcDb2dPolyline
 66
     1
 10
0.0
 20
0.0
 30
0.0
  0
VERTEX
  5
5C
330
5B
100
AcDbEntity
  8
Capa 1
370
     0
100
AcDbVertex
100
AcDb2dVertex
 10
62.84525958715327
 20
-99.65489906362795
 30
0.0
  0
VERTEX
  5
5D
330
5B
100
AcDbEntity
  8
Capa 1
370
     0
100
AcDbVertex
100
AcDb2dVertex
 10
60.99300399950869
 20
-99.65489906362795
 30
0.0
  0
VERTEX
  5
5E
330
5B
100
AcDbEntity
  8
Capa 1
370
     0
100
AcDbVertex
100
AcDb2dVertex
 10
60.6931084375177
 20
-98.3435234671676
 30
0.0
  0
VERTEX
  5
5F
330
5B
100
AcDbEntity
  8
Capa 1
370
     0
100
AcDbVertex
100
AcDb2dVertex
 10
58.81122502869997
 20
-98.3435234671676
 30
0.0
  0
VERTEX
  5
60
330
5B
100
AcDbEntity
  8
Capa 1
370
     0
100
AcDbVertex
100
AcDb2dVertex
 10
58.49961614205912
 20
-99.65489906362795
 30
0.0
  0
VERTEX
  5
61
330
5B
100
AcDbEntity
  8
Capa 1
370
     0
100
AcDbVertex
100
AcDb2dVertex
 10
56.6825005283641
 20
-99.65489906362795
 30
0.0
  0
VERTEX
  5
62
330
5B
100
AcDbEntity
  8
Capa 1
370
     0
100
AcDbVertex
100
AcDb2dVertex
 10
58.76419947532631
 20
-91.80438772661488
 30
0.0
  0
VERTEX
  5
63
330
5B
100
AcDbEntity
  8
Capa 1
370
     0
100
AcDbVertex
100
AcDb2dVertex
 10
60.76356064019106
 20
-91.80438772661488
 30
0.0
  0
VERTEX
  5
64
330
5B
100
AcDbEntity
  8
Capa 1
370
     0
100
AcDbVertex
100
AcDb2dVertex
 10
62.84525958715327
 20
-99.65489906362795
 30
0.0
  0
SEQEND
  5
65
330
5B
100
AcDbEntity
  8
Capa 1
370
     0
  0
SPLINE
  5
66
330
41
100
AcDbEntity
  8
Capa 1
370
     0
100
AcDbSpline
210
0.0
220
0.0
230
1.0
 70
    11
 71
     3
 72
    17
 73
    13
 74
     0
 42
0.0000000001
 43
0.0000000001
 12
1.0
 22
0.0
 32
0.0
 13
1.0
 23
0.0
 33
0.0
 40
0.0
 40
0.0
 40
0.0
 40
0.0
 40
1.0
 40
1.0
 40
1.0
 40
2.0
 40
2.0
 40
2.0
 40
3.0
 40
3.0
 40
3.0
 40
4.0
 40
4.0
 40
4.0
 40
4.0
 10
60.35204398447797
 20
-96.932240101635
 30
0.0
 10
60.08539359391963
 20
-95.76400822258678
 30
0.0
 10
59.88540580100087
 20
-94.65262041904518
 30
0.0
 10
59.7520806057217
 20
-93.59790443623595
 30
0.0
 10
59.7520806057217
 20
-93.59790443623595
 30
0.0
 10
59.72865395642201
 20
-93.59790443623595
 30
0.0
 10
59.72865395642201
 20
-93.59790443623595
 30
0.0
 10
59.58757729630103
 20
-94.68397078796096
 30
0.0
 10
59.38948430589916
 20
-95.79535859150255
 30
0.0
 10
59.13471949476494
 20
-96.932240101635
 30
0.0
 10
59.13471949476494
 20
-96.932240101635
 30
0.0
 10
60.35204398447797
 20
-96.932240101635
 30
0.0
 10
60.35204398447797
 20
-96.932240101635
 30
0.0
  0
SPLINE
  5
67
330
41
100
AcDbEntity
  8
Capa 1
370
     0
100
AcDbSpline
210
0.0
220
0.0
230
1.0
 70
    11
 71
     3
 72
    50
 73
    46
 74
     0
 42
0.0000000001
 43
0.0000000001
 12
1.0
 22
0.0
 32
0.0
 13
1.0
 23
0.0
 33
0.0
 40
0.0
 40
0.0
 40
0.0
 40
0.0
 40
1.0
 40
1.0
 40
1.0
 40
2.0
 40
2.0
 40
2.0
 40
3.0
 40
3.0
 40
3.0
 40
4.0
 40
4.0
 40
4.0
 40
5.0
 40
5.0
 40
5.0
 40
6.0
 40
6.0
 40
6.0
 40
7.0
 40
7.0
 40
7.0
 40
8.0
 40
8.0
 40
8.0
 40
9.0
 40
9.0
 40
9.0
 40
10.0
 40
10.0
 40
10.0
 40
11.0
 40
11.0
 40
11.0
 40
12.0
 40
12.0
 40
12.0
 40
13.0
 40
13.0
 40
13.0
 40
14.0
 40
14.0
 40
14.0
 40
15.0
 40
15.0
 40
15.0
 40
15.0
 10
64.31545408548364
 20
-91.80438772661488
 30
0.0
 10
64.31545408548364
 20
-91.80438772661488
 30
0.0
 10
66.56768525896572
 20
-91.80438772661488
 30
0.0
 10
66.56768525896572
 20
-91.80438772661488
 30
0.0
 10
66.88911266773952
 20
-93.4979966671637
 30
0.0
 10
67.14198267635688
 20
-94.95441078355307
 30
0.0
 10
67.32629528481773
 20
-96.17363007578298
 30
0.0
 10
67.32629528481773
 20
-96.17363007578298
 30
0.0
 10
67.52042641541156
 20
-94.95630558606996
 30
0.0
 10
67.52042641541156
 20
-94.95630558606996
 30
0.0
 10
67.598802337701
 20
-94.48208819252531
 30
0.0
 10
67.68303492231536
 20
-94.01941186885627
 30
0.0
 10
67.7732964240289
 20
-93.56844886983706
 30
0.0
 10
67.7732964240289
 20
-93.56844886983706
 30
0.0
 10
68.12021753939356
 20
-91.80438772661488
 30
0.0
 10
68.12021753939356
 20
-91.80438772661488
 30
0.0
 10
68.12021753939356
 20
-91.80438772661488
 30
0.0
 10
70.4194742662493
 20
-91.80438772661488
 30
0.0
 10
70.4194742662493
 20
-91.80438772661488
 30
0.0
 10
70.4194742662493
 20
-91.80438772661488
 30
0.0
 10
71.31330428989737
 20
-99.65489906362795
 30
0.0
 10
71.31330428989737
 20
-99.65489906362795
 30
0.0
 10
71.31330428989737
 20
-99.65489906362795
 30
0.0
 10
69.5492431466752
 20
-99.65489906362795
 30
0.0
 10
69.5492431466752
 20
-99.65489906362795
 30
0.0
 10
69.5492431466752
 20
-99.65489906362795
 30
0.0
 10
69.0729586958394
 20
-94.25660669301571
 30
0.0
 10
69.0729586958394
 20
-94.25660669301571
 30
0.0
 10
69.0729586958394
 20
-94.25660669301571
 30
0.0
 10
67.97328421694766
 20
-99.65489906362795
 30
0.0
 10
67.97328421694766
 20
-99.65489906362795
 30
0.0
 10
67.97328421694766
 20
-99.65489906362795
 30
0.0
 10
66.76767305188447
 20
-99.65489906362795
 30
0.0
 10
66.76767305188447
 20
-99.65489906362795
 30
0.0
 10
66.76767305188447
 20
-99.65489906362795
 30
0.0
 10
65.61511635729414
 20
-94.2447211135916
 30
0.0
 10
65.61511635729414
 20
-94.2447211135916
 30
0.0
 10
65.61511635729414
 20
-94.2447211135916
 30
0.0
 10
65.15640189343313
 20
-99.65489906362795
 30
0.0
 10
65.15640189343313
 20
-99.65489906362795
 30
0.0
 10
65.15640189343313
 20
-99.65489906362795
 30
0.0
 10
63.46864961520923
 20
-99.65489906362795
 30
0.0
 10
63.46864961520923
 20
-99.65489906362795
 30
0.0
 10
63.46864961520923
 20
-99.65489906362795
 30
0.0
 10
64.31545408548364
 20
-91.80438772661488
 30
0.0
 10
64.31545408548364
 20
-91.80438772661488
 30
0.0
  0
POLYLINE
  5
68
330
41
100
AcDbEntity
  8
Capa 1
370
     0
100
AcDb2dPolyline
 66
     1
 10
0.0
 20
0.0
 30
0.0
  0
VERTEX
  5
69
330
68
100
AcDbEntity
  8
Capa 1
370
     0
100
AcDbVertex
100
AcDb2dVertex
 10
72.71890324787931
 20
-91.80438772661488
 30
0.0
  0
VERTEX
  5
6A
330
68
100
AcDbEntity
  8
Capa 1
370
     0
100
AcDbVertex
100
AcDb2dVertex
 10
76.32367890887048
 20
-91.80438772661488
 30
0.0
  0
VERTEX
  5
6B
330
68
100
AcDbEntity
  8
Capa 1
370
     0
100
AcDbVertex
100
AcDb2dVertex
 10
76.32367890887048
 20
-93.47439776308974
 30
0.0
  0
VERTEX
  5
6C
330
68
100
AcDbEntity
  8
Capa 1
370
     0
100
AcDbVertex
100
AcDb2dVertex
 10
74.50070663285052
 20
-93.47439776308974
 30
0.0
  0
VERTEX
  5
6D
330
68
100
AcDbEntity
  8
Capa 1
370
     0
100
AcDbVertex
100
AcDb2dVertex
 10
74.50070663285052
 20
-94.92099335734615
 30
0.0
  0
VERTEX
  5
6E
330
68
100
AcDbEntity
  8
Capa 1
370
     0
100
AcDbVertex
100
AcDb2dVertex
 10
76.08252222490299
 20
-94.92099335734615
 30
0.0
  0
VERTEX
  5
6F
330
68
100
AcDbEntity
  8
Capa 1
370
     0
100
AcDbVertex
100
AcDb2dVertex
 10
76.08252222490299
 20
-96.55000675754653
 30
0.0
  0
VERTEX
  5
70
330
68
100
AcDbEntity
  8
Capa 1
370
     0
100
AcDbVertex
100
AcDb2dVertex
 10
74.50070663285052
 20
-96.55000675754653
 30
0.0
  0
VERTEX
  5
71
330
68
100
AcDbEntity
  8
Capa 1
370
     0
100
AcDbVertex
100
AcDb2dVertex
 10
74.50070663285052
 20
-97.9788601100539
 30
0.0
  0
VERTEX
  5
72
330
68
100
AcDbEntity
  8
Capa 1
370
     0
100
AcDbVertex
100
AcDb2dVertex
 10
76.33539223352032
 20
-97.9788601100539
 30
0.0
  0
VERTEX
  5
73
330
68
100
AcDbEntity
  8
Capa 1
370
     0
100
AcDbVertex
100
AcDb2dVertex
 10
76.33539223352032
 20
-99.65489906362795
 30
0.0
  0
VERTEX
  5
74
330
68
100
AcDbEntity
  8
Capa 1
370
     0
100
AcDbVertex
100
AcDb2dVertex
 10
72.71890324787931
 20
-99.65489906362795
 30
0.0
  0
VERTEX
  5
75
330
68
100
AcDbEntity
  8
Capa 1
370
     0
100
AcDbVertex
100
AcDb2dVertex
 10
72.71890324787931
 20
-91.80438772661488
 30
0.0
  0
SEQEND
  5
76
330
68
100
AcDbEntity
  8
Capa 1
370
     0
  0
POLYLINE
  5
77
330
41
100
AcDbEntity
  8
Capa 1
370
     0
100
AcDb2dPolyline
 66
     1
 10
0.0
 20
0.0
 30
0.0
  0
VERTEX
  5
78
330
77
100
AcDbEntity
  8
Capa 1
370
     0
100
AcDbVertex
100
AcDb2dVertex
 10
77.74081893672799
 20
-91.80438772661488
 30
0.0
  0
VERTEX
  5
79
330
77
100
AcDbEntity
  8
Capa 1
370
     0
100
AcDbVertex
100
AcDb2dVertex
 10
79.54019230867398
 20
-91.80438772661488
 30
0.0
  0
VERTEX
  5
7A
330
77
100
AcDbEntity
  8
Capa 1
370
     0
100
AcDbVertex
100
AcDb2dVertex
 10
81.80430906158017
 20
-96.332448977653
 30
0.0
  0
VERTEX
  5
7B
330
77
100
AcDbEntity
  8
Capa 1
370
     0
100
AcDbVertex
100
AcDb2dVertex
 10
81.73954126645748
 20
-95.4856445073786
 30
0.0
  0
VERTEX
  5
7C
330
77
100
AcDbEntity
  8
Capa 1
370
     0
100
AcDbVertex
100
AcDb2dVertex
 10
81.73954126645748
 20
-91.80438772661488
 30
0.0
  0
VERTEX
  5
7D
330
77
100
AcDbEntity
  8
Capa 1
370
     0
100
AcDbVertex
100
AcDb2dVertex
 10
83.52134465142869
 20
-91.80438772661488
 30
0.0
  0
VERTEX
  5
7E
330
77
100
AcDbEntity
  8
Capa 1
370
     0
100
AcDbVertex
100
AcDb2dVertex
 10
83.52134465142869
 20
-99.65489906362795
 30
0.0
  0
VERTEX
  5
7F
330
77
100
AcDbEntity
  8
Capa 1
370
     0
100
AcDbVertex
100
AcDb2dVertex
 10
81.69251571308382
 20
-99.65489906362795
 30
0.0
  0
VERTEX
  5
80
330
77
100
AcDbEntity
  8
Capa 1
370
     0
100
AcDbVertex
100
AcDb2dVertex
 10
79.47559676832554
 20
-95.19746227003745
 30
0.0
  0
VERTEX
  5
81
330
77
100
AcDbEntity
  8
Capa 1
370
     0
100
AcDbVertex
100
AcDb2dVertex
 10
79.5226223216992
 20
-96.17363007578298
 30
0.0
  0
VERTEX
  5
82
330
77
100
AcDbEntity
  8
Capa 1
370
     0
100
AcDbVertex
100
AcDb2dVertex
 10
79.5226223216992
 20
-99.65489906362795
 30
0.0
  0
VERTEX
  5
83
330
77
100
AcDbEntity
  8
Capa 1
370
     0
100
AcDbVertex
100
AcDb2dVertex
 10
77.74081893672799
 20
-99.65489906362795
 30
0.0
  0
VERTEX
  5
84
330
77
100
AcDbEntity
  8
Capa 1
370
     0
100
AcDbVertex
100
AcDb2dVertex
 10
77.74081893672799
 20
-91.80438772661488
 30
0.0
  0
SEQEND
  5
85
330
77
100
AcDbEntity
  8
Capa 1
370
     0
  0
POLYLINE
  5
86
330
41
100
AcDbEntity
  8
Capa 1
370
     0
100
AcDb2dPolyline
 66
     1
 10
0.0
 20
0.0
 30
0.0
  0
VERTEX
  5
87
330
86
100
AcDbEntity
  8
Capa 1
370
     0
100
AcDbVertex
100
AcDb2dVertex
 10
84.62101913032045
 20
-91.80438772661488
 30
0.0
  0
VERTEX
  5
88
330
86
100
AcDbEntity
  8
Capa 1
370
     0
100
AcDbVertex
100
AcDb2dVertex
 10
88.87261146866727
 20
-91.80438772661488
 30
0.0
  0
VERTEX
  5
89
330
86
100
AcDbEntity
  8
Capa 1
370
     0
100
AcDbVertex
100
AcDb2dVertex
 10
88.87261146866727
 20
-93.59790443623595
 30
0.0
  0
VERTEX
  5
8A
330
86
100
AcDbEntity
  8
Capa 1
370
     0
100
AcDbVertex
100
AcDb2dVertex
 10
87.64357365430439
 20
-93.59790443623595
 30
0.0
  0
VERTEX
  5
8B
330
86
100
AcDbEntity
  8
Capa 1
370
     0
100
AcDbVertex
100
AcDb2dVertex
 10
87.64357365430439
 20
-99.65489906362795
 30
0.0
  0
VERTEX
  5
8C
330
86
100
AcDbEntity
  8
Capa 1
370
     0
100
AcDbVertex
100
AcDb2dVertex
 10
85.83834362003347
 20
-99.65489906362795
 30
0.0
  0
VERTEX
  5
8D
330
86
100
AcDbEntity
  8
Capa 1
370
     0
100
AcDbVertex
100
AcDb2dVertex
 10
85.83834362003347
 20
-93.59790443623595
 30
0.0
  0
VERTEX
  5
8E
330
86
100
AcDbEntity
  8
Capa 1
370
     0
100
AcDbVertex
100
AcDb2dVertex
 10
84.62101913032045
 20
-93.59790443623595
 30
0.0
  0
VERTEX
  5
8F
330
86
100
AcDbEntity
  8
Capa 1
370
     0
100
AcDbVertex
100
AcDb2dVertex
 10
84.62101913032045
 20
-91.80438772661488
 30
0.0
  0
SEQEND
  5
90
330
86
100
AcDbEntity
  8
Capa 1
370
     0
  0
POLYLINE
  5
91
330
41
100
AcDbEntity
  8
Capa 1
370
     0
100
AcDb2dPolyline
 66
     1
 10
0.0
 20
0.0
 30
0.0
  0
VERTEX
  5
92
330
91
100
AcDbEntity
  8
Capa 1
370
     0
100
AcDbVertex
100
AcDb2dVertex
 10
89.9783148646582
 20
-91.80438772661488
 30
0.0
  0
VERTEX
  5
93
330
91
100
AcDbEntity
  8
Capa 1
370
     0
100
AcDbVertex
100
AcDb2dVertex
 10
93.58309052564937
 20
-91.80438772661488
 30
0.0
  0
VERTEX
  5
94
330
91
100
AcDbEntity
  8
Capa 1
370
     0
100
AcDbVertex
100
AcDb2dVertex
 10
93.58309052564937
 20
-93.47439776308974
 30
0.0
  0
VERTEX
  5
95
330
91
100
AcDbEntity
  8
Capa 1
370
     0
100
AcDbVertex
100
AcDb2dVertex
 10
91.76011824962941
 20
-93.47439776308974
 30
0.0
  0
VERTEX
  5
96
330
91
100
AcDbEntity
  8
Capa 1
370
     0
100
AcDbVertex
100
AcDb2dVertex
 10
91.76011824962941
 20
-94.92099335734615
 30
0.0
  0
VERTEX
  5
97
330
91
100
AcDbEntity
  8
Capa 1
370
     0
100
AcDbVertex
100
AcDb2dVertex
 10
93.34193384168188
 20
-94.92099335734615
 30
0.0
  0
VERTEX
  5
98
330
91
100
AcDbEntity
  8
Capa 1
370
     0
100
AcDbVertex
100
AcDb2dVertex
 10
93.34193384168188
 20
-96.55000675754653
 30
0.0
  0
VERTEX
  5
99
330
91
100
AcDbEntity
  8
Capa 1
370
     0
100
AcDbVertex
100
AcDb2dVertex
 10
91.76011824962941
 20
-96.55000675754653
 30
0.0
  0
VERTEX
  5
9A
330
91
100
AcDbEntity
  8
Capa 1
370
     0
100
AcDbVertex
100
AcDb2dVertex
 10
91.76011824962941
 20
-97.9788601100539
 30
0.0
  0
VERTEX
  5
9B
330
91
100
AcDbEntity
  8
Capa 1
370
     0
100
AcDbVertex
100
AcDb2dVertex
 10
93.59480385029921
 20
-97.9788601100539
 30
0.0
  0
VERTEX
  5
9C
330
91
100
AcDbEntity
  8
Capa 1
370
     0
100
AcDbVertex
100
AcDb2dVertex
 10
93.59480385029921
 20
-99.65489906362795
 30
0.0
  0
VERTEX
  5
9D
330
91
100
AcDbEntity
  8
Capa 1
370
     0
100
AcDbVertex
100
AcDb2dVertex
 10
89.9783148646582
 20
-99.65489906362795
 30
0.0
  0
VERTEX
  5
9E
330
91
100
AcDbEntity
  8
Capa 1
370
     0
100
AcDbVertex
100
AcDb2dVertex
 10
89.9783148646582
 20
-91.80438772661488
 30
0.0
  0
SEQEND
  5
9F
330
91
100
AcDbEntity
  8
Capa 1
370
     0
  0
ENDBLK
  5
44
330
41
100
AcDbEntity
  8
0
100
AcDbBlockEnd
  0
ENDSEC
  0
SECTION
  2
ENTITIES
  0
INSERT
  5
42
330
1F
100
AcDbEntity
  8
Capa 1
100
AcDbBlockReference
  2
block 2
 10
0.0
 20
0.0
 30
0.0
  0
ENDSEC
  0
SECTION
  2
OBJECTS
  0
DICTIONARY
  5
C
330
0
100
AcDbDictionary
281
     1
  3
ACAD_GROUP
350
D
  3
ACAD_LAYOUT
350
1A
  3
ACAD_MATERIAL
350
3B
  3
ACAD_MLEADERSTYLE
350
A1
  3
ACAD_MLINESTYLE
350
17
  3
ACAD_PLOTSETTINGS
350
19
  3
ACAD_PLOTSTYLENAME
350
E
  3
ACAD_TABLESTYLE
350
A0
  3
ACAD_VISUALSTYLE
350
2A
  0
SUN
  5
3F
330
29
100
AcDbSun
 90
        1
290
     0
 63
     7
421
 16777215
 40
1.0
291
     1
 91
  2455826
 92
 54000000
292
     0
 70
     2
 71
   256
280
     1
  0
DICTIONARY
  5
D
102
{ACAD_REACTORS
330
C
102
}
330
C
100
AcDbDictionary
281
     1
  0
DICTIONARY
  5
1A
102
{ACAD_REACTORS
330
C
102
}
330
C
100
AcDbDictionary
281
     1
  3
Layout1
350
1E
  3
Layout2
350
26
  3
Model
350
22
  0
DICTIONARY
  5
3B
102
{ACAD_REACTORS
330
C
102
}
330
C
100
AcDbDictionary
281
     1
  3
ByBlock
350
3D
  3
ByLayer
350
3C
  3
Global
350
3E
  0
DICTIONARY
  5
A1
102
{ACAD_REACTORS
330
C
102
}
330
C
100
AcDbDictionary
281
     1
  0
DICTIONARY
  5
17
102
{ACAD_REACTORS
330
C
102
}
330
C
100
AcDbDictionary
281
     1
  3
Standard
350
18
  0
DICTIONARY
  5
19
102
{ACAD_REACTORS
330
C
102
}
330
C
100
AcDbDictionary
281
     1
  0
ACDBDICTIONARYWDFLT
  5
E
102
{ACAD_REACTORS
330
C
102
}
330
C
100
AcDbDictionary
281
     1
  3
Normal
350
F
100
AcDbDictionaryWithDefault
340
F
  0
DICTIONARY
  5
A0
102
{ACAD_REACTORS
330
C
102
}
330
C
100
AcDbDictionary
281
     1
  0
DICTIONARY
  5
2A
102
{ACAD_REACTORS
330
C
102
}
330
C
100
AcDbDictionary
281
     1
  3
2dWireframe
350
2F
  3
3D Hidden
350
31
  3
3dWireframe
350
30
  3
Basic
350
32
  3
Brighten
350
36
  3
ColorChange
350
3A
  3
Conceptual
350
34
  3
Dim
350
35
  3
Facepattern
350
39
  3
Flat
350
2B
  3
FlatWithEdges
350
2C
  3
Gouraud
350
2D
  3
GouraudWithEdges
350
2E
  3
Linepattern
350
38
  3
Realistic
350
33
  3
Thicken
350
37
  0
LAYOUT
  5
1E
102
{ACAD_REACTORS
330
1A
102
}
330
1A
100
AcDbPlotSettings
  1

  2
none_device
  4

  6

 40
0.0
 41
0.0
 42
0.0
 43
0.0
 44
0.0
 45
0.0
 46
0.0
 47
0.0
 48
0.0
 49
0.0
140
0.0
141
0.0
142
1.0
143
1.0
 70
   688
 72
     0
 73
     0
 74
     5
  7

 75
    16
 76
     0
 77
     2
 78
   300
147
1.0
148
0.0
149
0.0
100
AcDbLayout
  1
Layout1
 70
     1
 71
     1
 10
0.0
 20
0.0
 11
12.0
 21
9.0
 12
0.0
 22
0.0
 32
0.0
 14
1.000000000000000E+20
 24
1.000000000000000E+20
 34
1.000000000000000E+20
 15
-1.000000000000000E+20
 25
-1.000000000000000E+20
 35
-1.000000000000000E+20
146
0.0
 13
0.0
 23
0.0
 33
0.0
 16
1.0
 26
0.0
 36
0.0
 17
0.0
 27
1.0
 37
0.0
 76
     0
330
1B
  0
LAYOUT
  5
26
102
{ACAD_REACTORS
330
1A
102
}
330
1A
100
AcDbPlotSettings
  1

  2
none_device
  4

  6

 40
0.0
 41
0.0
 42
0.0
 43
0.0
 44
0.0
 45
0.0
 46
0.0
 47
0.0
 48
0.0
 49
0.0
140
0.0
141
0.0
142
1.0
143
1.0
 70
   688
 72
     0
 73
     0
 74
     5
  7

 75
    16
 76
     0
 77
     2
 78
   300
147
1.0
148
0.0
149
0.0
100
AcDbLayout
  1
Layout2
 70
     1
 71
     2
 10
0.0
 20
0.0
 11
0.0
 21
0.0
 12
0.0
 22
0.0
 32
0.0
 14
0.0
 24
0.0
 34
0.0
 15
0.0
 25
0.0
 35
0.0
146
0.0
 13
0.0
 23
0.0
 33
0.0
 16
1.0
 26
0.0
 36
0.0
 17
0.0
 27
1.0
 37
0.0
 76
     0
330
23
  0
LAYOUT
  5
22
102
{ACAD_REACTORS
330
1A
102
}
330
1A
100
AcDbPlotSettings
  1

  2
none_device
  4

  6

 40
0.0
 41
0.0
 42
0.0
 43
0.0
 44
0.0
 45
0.0
 46
0.0
 47
0.0
 48
0.0
 49
0.0
140
0.0
141
0.0
142
1.0
143
1.0
 70
  1712
 72
     0
 73
     0
 74
     0
  7

 75
     0
 76
     0
 77
     2
 78
   300
147
1.0
148
0.0
149
0.0
100
AcDbLayout
  1
Model
 70
     1
 71
     0
 10
0.0
 20
0.0
 11
12.0
 21
9.0
 12
0.0
 22
0.0
 32
0.0
 14
1.000000000000000E+20
 24
1.000000000000000E+20
 34
1.000000000000000E+20
 15
-1.000000000000000E+20
 25
-1.000000000000000E+20
 35
-1.000000000000000E+20
146
0.0
 13
0.0
 23
0.0
 33
0.0
 16
1.0
 26
0.0
 36
0.0
 17
0.0
 27
1.0
 37
0.0
 76
     0
330
1F
331
29
  0
MATERIAL
  5
3D
102
{ACAD_REACTORS
330
3B
102
}
330
3B
100
AcDbMaterial
  1
ByBlock
 72
     1
 94
      127
  0
MATERIAL
  5
3C
102
{ACAD_REACTORS
330
3B
102
}
330
3B
100
AcDbMaterial
  1
ByLayer
 72
     1
 94
      127
  0
MATERIAL
  5
3E
102
{ACAD_REACTORS
330
3B
102
}
330
3B
100
AcDbMaterial
  1
Global
 72
     1
 94
      127
  0
MLINESTYLE
  5
18
102
{ACAD_REACTORS
330
17
102
}
330
17
100
AcDbMlineStyle
  2
Standard
 70
     0
  3

 62
   256
 51
90.0
 52
90.0
 71
     2
 49
0.5
 62
   256
  6
BYLAYER
 49
-0.5
 62
   256
  6
BYLAYER
  0
ACDBPLACEHOLDER
  5
F
102
{ACAD_REACTORS
330
E
102
}
330
E
  0
VISUALSTYLE
  5
2F
102
{ACAD_REACTORS
330
2A
102
}
330
2A
100
AcDbVisualStyle
  2
2dWireframe
 70
     4
177
     2
291
     0
 71
     0
176
     1
 72
     2
176
     1
 73
     0
176
     1
 90
        0
176
     1
 40
-0.6
176
     1
 41
-30.0
176
     1
 62
     5
 63
     7
421
 16777215
176
     1
 74
     1
176
     1
 91
        4
176
     1
 64
     7
176
     1
 65
   257
176
     1
 75
     1
176
     1
175
     1
176
     1
 42
1.0
176
     1
 92
        0
176
     1
 66
   257
176
     1
 43
1.0
176
     1
 76
     1
176
     1
 77
     6
176
     1
 78
     2
176
     1
 67
     7
176
     1
 79
     5
176
     1
170
     0
176
     1
171
     0
176
     1
290
     0
176
     1
 93
        1
176
     1
 44
0.0
176
     1
173
     0
176
     1
  0
VISUALSTYLE
  5
31
102
{ACAD_REACTORS
330
2A
102
}
330
2A
100
AcDbVisualStyle
  2
3D Hidden
 70
     6
177
     2
291
     0
 71
     1
176
     1
 72
     2
176
     1
 73
     2
176
     1
 90
        0
176
     1
 40
-0.6
176
     1
 41
-30.0
176
     1
 62
     5
 63
     7
421
 16777215
176
     1
 74
     2
176
     1
 91
        2
176
     1
 64
     7
176
     1
 65
   257
176
     1
 75
     2
176
     1
175
     1
176
     1
 42
40.0
176
     1
 92
        0
176
     1
 66
   257
176
     1
 43
1.0
176
     1
 76
     1
176
     1
 77
     6
176
     1
 78
     2
176
     1
 67
     7
176
     1
 79
     3
176
     1
170
     0
176
     1
171
     0
176
     1
290
     0
176
     1
 93
        1
176
     1
 44
0.0
176
     1
173
     0
176
     1
  0
VISUALSTYLE
  5
30
102
{ACAD_REACTORS
330
2A
102
}
330
2A
100
AcDbVisualStyle
  2
3dWireframe
 70
     5
177
     2
291
     0
 71
     0
176
     1
 72
     2
176
     1
 73
     0
176
     1
 90
        0
176
     1
 40
-0.6
176
     1
 41
-30.0
176
     1
 62
     5
 63
     7
421
 16777215
176
     1
 74
     1
176
     1
 91
        4
176
     1
 64
     7
176
     1
 65
   257
176
     1
 75
     1
176
     1
175
     1
176
     1
 42
1.0
176
     1
 92
        0
176
     1
 66
   257
176
     1
 43
1.0
176
     1
 76
     1
176
     1
 77
     6
176
     1
 78
     2
176
     1
 67
     7
176
     1
 79
     5
176
     1
170
     0
176
     1
171
     0
176
     1
290
     0
176
     1
 93
        1
176
     1
 44
0.0
176
     1
173
     0
176
     1
  0
VISUALSTYLE
  5
32
102
{ACAD_REACTORS
330
2A
102
}
330
2A
100
AcDbVisualStyle
  2
Basic
 70
     7
177
     2
291
     1
 71
     1
176
     1
 72
     0
176
     1
 73
     1
176
     1
 90
        0
176
     1
 40
-0.6
176
     1
 41
-30.0
176
     1
 62
     5
 63
     7
421
 16777215
176
     1
 74
     0
176
     1
 91
        4
176
     1
 64
     7
176
     1
 65
   257
176
     1
 75
     1
176
     1
175
     1
176
     1
 42
1.0
176
     1
 92
        8
176
     1
 66
     7
176
     1
 43
1.0
176
     1
 76
     1
176
     1
 77
     6
176
     1
 78
     2
176
     1
 67
     7
176
     1
 79
     5
176
     1
170
     0
176
     1
171
     0
176
     1
290
     0
176
     1
 93
        1
176
     1
 44
0.0
176
     1
173
     0
176
     1
  0
VISUALSTYLE
  5
36
102
{ACAD_REACTORS
330
2A
102
}
330
2A
100
AcDbVisualStyle
  2
Brighten
 70
    12
177
     2
291
     1
 71
     2
176
     1
 72
     2
176
     1
 73
     0
176
     1
 90
        0
176
     1
 40
-0.6
176
     1
 41
-30.0
176
     1
 62
     5
 63
     7
421
 16777215
176
     1
 74
     1
176
     1
 91
        4
176
     1
 64
     7
176
     1
 65
   257
176
     1
 75
     1
176
     1
175
     1
176
     1
 42
1.0
176
     1
 92
        8
176
     1
 66
     7
176
     1
 43
1.0
176
     1
 76
     1
176
     1
 77
     6
176
     1
 78
     2
176
     1
 67
     7
176
     1
 79
     5
176
     1
170
     0
176
     1
171
     0
176
     1
290
     0
176
     1
 93
        1
176
     1
 44
50.0
176
     1
173
     0
176
     1
  0
VISUALSTYLE
  5
3A
102
{ACAD_REACTORS
330
2A
102
}
330
2A
100
AcDbVisualStyle
  2
ColorChange
 70
    16
177
     2
291
     1
 71
     2
176
     1
 72
     2
176
     1
 73
     3
176
     1
 90
        0
176
     1
 40
-0.6
176
     1
 41
-30.0
176
     1
 62
     5
 63
     8
421
  8421504
176
     1
 74
     1
176
     1
 91
        4
176
     1
 64
     7
176
     1
 65
   257
176
     1
 75
     1
176
     1
175
     1
176
     1
 42
1.0
176
     1
 92
        8
176
     1
 66
     8
424
  8421504
176
     1
 43
1.0
176
     1
 76
     1
176
     1
 77
     6
176
     1
 78
     2
176
     1
 67
     7
176
     1
 79
     5
176
     1
170
     0
176
     1
171
     0
176
     1
290
     0
176
     1
 93
        1
176
     1
 44
0.0
176
     1
173
     0
176
     1
  0
VISUALSTYLE
  5
34
102
{ACAD_REACTORS
330
2A
102
}
330
2A
100
AcDbVisualStyle
  2
Conceptual
 70
     9
177
     2
291
     0
 71
     3
176
     1
 72
     2
176
     1
 73
     0
176
     1
 90
        0
176
     1
 40
-0.6
176
     1
 41
-30.0
176
     1
 62
     5
 63
     7
421
 16777215
176
     1
 74
     2
176
     1
 91
        2
176
     1
 64
     7
176
     1
 65
   257
176
     1
 75
     1
176
     1
175
     1
176
     1
 42
40.0
176
     1
 92
        8
176
     1
 66
     7
176
     1
 43
1.0
176
     1
 76
     1
176
     1
 77
     6
176
     1
 78
     2
176
     1
 67
     7
176
     1
 79
     3
176
     1
170
     0
176
     1
171
     0
176
     1
290
     0
176
     1
 93
        1
176
     1
 44
0.0
176
     1
173
     0
176
     1
  0
VISUALSTYLE
  5
35
102
{ACAD_REACTORS
330
2A
102
}
330
2A
100
AcDbVisualStyle
  2
Dim
 70
    11
177
     2
291
     1
 71
     2
176
     1
 72
     2
176
     1
 73
     0
176
     1
 90
        0
176
     1
 40
-0.6
176
     1
 41
-30.0
176
     1
 62
     5
 63
     7
421
 16777215
176
     1
 74
     1
176
     1
 91
        4
176
     1
 64
     7
176
     1
 65
   257
176
     1
 75
     1
176
     1
175
     1
176
     1
 42
1.0
176
     1
 92
        8
176
     1
 66
     7
176
     1
 43
1.0
176
     1
 76
     1
176
     1
 77
     6
176
     1
 78
     2
176
     1
 67
     7
176
     1
 79
     5
176
     1
170
     0
176
     1
171
     0
176
     1
290
     0
176
     1
 93
        1
176
     1
 44
-50.0
176
     1
173
     0
176
     1
  0
VISUALSTYLE
  5
39
102
{ACAD_REACTORS
330
2A
102
}
330
2A
100
AcDbVisualStyle
  2
Facepattern
 70
    15
177
     2
291
     1
 71
     2
176
     1
 72
     2
176
     1
 73
     0
176
     1
 90
        0
176
     1
 40
-0.6
176
     1
 41
-30.0
176
     1
 62
     5
 63
     7
421
 16777215
176
     1
 74
     1
176
     1
 91
        4
176
     1
 64
     7
176
     1
 65
   257
176
     1
 75
     1
176
     1
175
     1
176
     1
 42
1.0
176
     1
 92
        8
176
     1
 66
     7
176
     1
 43
1.0
176
     1
 76
     1
176
     1
 77
     6
176
     1
 78
     2
176
     1
 67
     7
176
     1
 79
     5
176
     1
170
     0
176
     1
171
     0
176
     1
290
     0
176
     1
 93
        1
176
     1
 44
0.0
176
     1
173
     0
176
     1
  0
VISUALSTYLE
  5
2B
102
{ACAD_REACTORS
330
2A
102
}
330
2A
100
AcDbVisualStyle
  2
Flat
 70
     0
177
     2
291
     1
 71
     2
176
     1
 72
     1
176
     1
 73
     1
176
     1
 90
        2
176
     1
 40
-0.6
176
     1
 41
30.0
176
     1
 62
     5
 63
     7
421
 16777215
176
     1
 74
     0
176
     1
 91
        4
176
     1
 64
     7
176
     1
 65
   257
176
     1
 75
     1
176
     1
175
     1
176
     1
 42
1.0
176
     1
 92
        8
176
     1
 66
     7
176
     1
 43
1.0
176
     1
 76
     1
176
     1
 77
     6
176
     1
 78
     2
176
     1
 67
     7
176
     1
 79
     5
176
     1
170
     0
176
     1
171
     0
176
     1
290
     0
176
     1
 93
       13
176
     1
 44
0.0
176
     1
173
     0
176
     1
  0
VISUALSTYLE
  5
2C
102
{ACAD_REACTORS
330
2A
102
}
330
2A
100
AcDbVisualStyle
  2
FlatWithEdges
 70
     1
177
     2
291
     1
 71
     2
176
     1
 72
     1
176
     1
 73
     1
176
     1
 90
        2
176
     1
 40
-0.6
176
     1
 41
30.0
176
     1
 62
     5
 63
     7
421
 16777215
176
     1
 74
     1
176
     1
 91
        4
176
     1
 64
     7
176
     1
 65
   257
176
     1
 75
     1
176
     1
175
     1
176
     1
 42
1.0
176
     1
 92
        0
176
     1
 66
   257
176
     1
 43
1.0
176
     1
 76
     1
176
     1
 77
     6
176
     1
 78
     2
176
     1
 67
     7
176
     1
 79
     5
176
     1
170
     0
176
     1
171
     0
176
     1
290
     0
176
     1
 93
       13
176
     1
 44
0.0
176
     1
173
     0
176
     1
  0
VISUALSTYLE
  5
2D
102
{ACAD_REACTORS
330
2A
102
}
330
2A
100
AcDbVisualStyle
  2
Gouraud
 70
     2
177
     2
291
     1
 71
     2
176
     1
 72
     2
176
     1
 73
     1
176
     1
 90
        2
176
     1
 40
-0.6
176
     1
 41
30.0
176
     1
 62
     5
 63
     7
421
 16777215
176
     1
 74
     0
176
     1
 91
        4
176
     1
 64
     7
176
     1
 65
   257
176
     1
 75
     1
176
     1
175
     1
176
     1
 42
1.0
176
     1
 92
        0
176
     1
 66
     7
176
     1
 43
1.0
176
     1
 76
     1
176
     1
 77
     6
176
     1
 78
     2
176
     1
 67
     7
176
     1
 79
     5
176
     1
170
     0
176
     1
171
     0
176
     1
290
     0
176
     1
 93
       13
176
     1
 44
0.0
176
     1
173
     0
176
     1
  0
VISUALSTYLE
  5
2E
102
{ACAD_REACTORS
330
2A
102
}
330
2A
100
AcDbVisualStyle
  2
GouraudWithEdges
 70
     3
177
     2
291
     1
 71
     2
176
     1
 72
     2
176
     1
 73
     1
176
     1
 90
        2
176
     1
 40
-0.6
176
     1
 41
30.0
176
     1
 62
     5
 63
     7
421
 16777215
176
     1
 74
     1
176
     1
 91
        4
176
     1
 64
     7
176
     1
 65
   257
176
     1
 75
     1
176
     1
175
     1
176
     1
 42
1.0
176
     1
 92
        0
176
     1
 66
   257
176
     1
 43
1.0
176
     1
 76
     1
176
     1
 77
     6
176
     1
 78
     2
176
     1
 67
     7
176
     1
 79
     5
176
     1
170
     0
176
     1
171
     0
176
     1
290
     0
176
     1
 93
       13
176
     1
 44
0.0
176
     1
173
     0
176
     1
  0
VISUALSTYLE
  5
38
102
{ACAD_REACTORS
330
2A
102
}
330
2A
100
AcDbVisualStyle
  2
Linepattern
 70
    14
177
     2
291
     1
 71
     2
176
     1
 72
     2
176
     1
 73
     0
176
     1
 90
        0
176
     1
 40
-0.6
176
     1
 41
-30.0
176
     1
 62
     5
 63
     7
421
 16777215
176
     1
 74
     1
176
     1
 91
        4
176
     1
 64
     7
176
     1
 65
   257
176
     1
 75
     7
176
     1
175
     7
176
     1
 42
1.0
176
     1
 92
        8
176
     1
 66
     7
176
     1
 43
1.0
176
     1
 76
     1
176
     1
 77
     6
176
     1
 78
     2
176
     1
 67
     7
176
     1
 79
     5
176
     1
170
     0
176
     1
171
     0
176
     1
290
     0
176
     1
 93
        1
176
     1
 44
0.0
176
     1
173
     0
176
     1
  0
VISUALSTYLE
  5
33
102
{ACAD_REACTORS
330
2A
102
}
330
2A
100
AcDbVisualStyle
  2
Realistic
 70
     8
177
     2
291
     0
 71
     2
176
     1
 72
     2
176
     1
 73
     0
176
     1
 90
        0
176
     1
 40
-0.6
176
     1
 41
-30.0
176
     1
 62
     5
 63
     7
421
 16777215
176
     1
 74
     1
176
     1
 91
        0
176
     1
 64
     7
176
     1
 65
   257
176
     1
 75
     1
176
     1
175
     1
176
     1
 42
1.0
176
     1
 92
        8
176
     1
 66
     8
424
  7895160
176
     1
 43
1.0
176
     1
 76
     1
176
     1
 77
     6
176
     1
 78
     2
176
     1
 67
     7
176
     1
 79
     5
176
     1
170
     0
176
     1
171
     0
176
     1
290
     0
176
     1
 93
       13
176
     1
 44
0.0
176
     1
173
     0
176
     1
  0
VISUALSTYLE
  5
37
102
{ACAD_REACTORS
330
2A
102
}
330
2A
100
AcDbVisualStyle
  2
Thicken
 70
    13
177
     2
291
     1
 71
     2
176
     1
 72
     2
176
     1
 73
     0
176
     1
 90
        0
176
     1
 40
-0.6
176
     1
 41
-30.0
176
     1
 62
     5
 63
     7
421
 16777215
176
     1
 74
     1
176
     1
 91
        4
176
     1
 64
     7
176
     1
 65
   257
176
     1
 75
     1
176
     1
175
     1
176
     1
 42
1.0
176
     1
 92
       12
176
     1
 66
     7
176
     1
 43
1.0
176
     1
 76
     1
176
     1
 77
     6
176
     1
 78
     2
176
     1
 67
     7
176
     1
 79
     5
176
     1
170
     0
176
     1
171
     0
176
     1
290
     0
176
     1
 93
        1
176
     1
 44
0.0
176
     1
173
     0
176
     1
  0
ENDSEC
  0
EOF
