<?xml version="1.0" encoding="utf-8"?>
<!-- Generator: Adobe Illustrator 23.0.0, SVG Export Plug-In . SVG Version: 6.00 Build 0)  -->
<svg version="1.1" id="Capa_1" xmlns="http://www.w3.org/2000/svg" xmlns:xlink="http://www.w3.org/1999/xlink" x="0px" y="0px"
	 viewBox="0 0 611.8 86.3" style="enable-background:new 0 0 611.8 86.3;" xml:space="preserve">
<style type="text/css">
	.st0{fill:#E4AA24;}
</style>
<title>proximamente</title>
<path class="st0" d="M59.5,26.8c-3.5-3.3-8.2-5-14-5H29v58.7h13.3V58.2h2.3c6.3,0,11.2-1.6,14.8-4.9s5.3-7.7,5.3-13.4
	C64.7,34.5,63,30.1,59.5,26.8z M48.9,45.2c-1.4,1.1-3.6,1.7-6.6,1.7V33.1c3.1,0.1,5.3,0.6,6.7,1.6c1.4,1,2.1,2.8,2.1,5.3
	C51.1,42.4,50.4,44.2,48.9,45.2z"/>
<path class="st0" d="M102.5,54.1c2.6-1.3,4.7-3.4,6-6c1.3-2.5,2.1-5.4,2.1-8.2c0-5.5-1.8-9.9-5.4-13.2c-3.6-3.2-8.6-4.8-14.9-4.8
	H74.8v58.7h13.3V53.9h0.2l10.8,26.7h14L102.5,54.1z M88.1,47.1V33.2c3.2,0.1,5.4,0.7,6.8,1.9c1.4,1.2,2,3.1,2,5.8
	C97,45,94,47,88.1,47.1z"/>
<path class="st0" d="M155.6,28.2c-3.8-5.3-9.2-8-16.3-8c-6.7,0-11.9,2.6-15.6,7.9c-3.7,5.3-5.6,12.7-5.6,22.1
	c0,10.3,1.9,18.1,5.6,23.5s9.1,8.1,16.2,8.1c6.9,0,12.1-2.7,15.9-8.1c3.7-5.4,5.6-13.1,5.6-22.9C161.3,41.1,159.4,33.5,155.6,28.2z
	 M145,65c-1,2.2-3.3,3.6-5.7,3.6c-2.3,0-4.1-1.2-5.3-3.6s-1.8-7.3-1.8-14.6c0-11.3,2.4-16.9,7.2-16.9c5.1,0,7.6,5.7,7.6,17.2
	C147,57.9,146.3,62.6,145,65z"/>
<g id="POLYLINE">
	<polyline class="st0" points="132.6,17.2 138.7,4 152.6,4 140.4,17.2 132.6,17.2 	"/>
</g>
<g id="SPLINE-7">
	<path class="st0" d="M166.9,21.8h14.8c3.8,9.2,5.8,14.5,6.2,15.8h0.2c0.5-1.5,1-3.1,1.7-4.5l4.5-11.4h14.8l-13.6,28l14.8,30.7
		h-14.8c-4.7-11.1-7.2-17-7.4-17.9h-0.2c-0.5,1.9-1.2,3.8-2,5.6l-5.4,12.3h-14.5L180.4,50L166.9,21.8z"/>
</g>
<g id="POLYLINE-2">
	<polyline class="st0" points="217.9,21.9 231.2,21.9 231.2,80.6 217.9,80.6 217.9,21.9 	"/>
</g>
<g id="SPLINE-8">
	<path class="st0" d="M248.5,21.8h16.8c2.4,12.7,4.3,23.6,5.7,32.7l1.5-9.1c0.6-3.5,1.2-7,1.9-10.4l2.6-13.2h17.2l6.7,58.7h-13.2
		L284,40.2l-8.2,40.4h-9l-8.6-40.5l-3.4,40.5h-12.6L248.5,21.8z"/>
</g>
<path class="st0" d="M336.8,21.9h-15l-15.6,58.7h13.6l2.3-9.8h14.1l2.2,9.8h13.9L336.8,21.9z M324.6,60.2c1.9-8.5,3.3-16.8,4.4-24.9
	h0.2c1,7.9,2.5,16.2,4.5,24.9H324.6z"/>
<g id="SPLINE-10">
	<path class="st0" d="M363.4,21.8h16.8c2.4,12.7,4.3,23.6,5.7,32.7l1.5-9.1c0.6-3.5,1.2-7,1.9-10.4l2.6-13.2H409l6.7,58.7h-13.2
		l-3.6-40.4l-8.2,40.4h-9l-8.6-40.5l-3.4,40.5H357L363.4,21.8z"/>
</g>
<g id="POLYLINE-4">
	<polyline class="st0" points="426.2,21.9 453.2,21.9 453.2,34.3 439.5,34.3 439.5,45.2 451.4,45.2 451.4,57.3 439.5,57.3 439.5,68 
		453.2,68 453.2,80.6 426.2,80.6 426.2,21.9 	"/>
</g>
<g id="POLYLINE-5">
	<polyline class="st0" points="463.8,21.9 477.2,21.9 494.1,55.7 493.7,49.4 493.7,21.9 507,21.9 507,80.6 493.3,80.6 476.7,47.2 
		477.1,54.5 477.1,80.6 463.8,80.6 463.8,21.9 	"/>
</g>
<g id="POLYLINE-6">
	<polyline class="st0" points="515.2,21.9 547,21.9 547,35.3 537.8,35.3 537.8,80.6 524.3,80.6 524.3,35.3 515.2,35.3 515.2,21.9 	
		"/>
</g>
<g id="POLYLINE-7">
	<polyline class="st0" points="555.3,21.9 582.2,21.9 582.2,34.3 568.6,34.3 568.6,45.2 580.4,45.2 580.4,57.3 568.6,57.3 568.6,68 
		582.3,68 582.3,80.6 555.3,80.6 555.3,21.9 	"/>
</g>
</svg>
